<svg xmlns="http://www.w3.org/2000/svg" xmlns:xlink="http://www.w3.org/1999/xlink" width="320" zoomAndPan="magnify" viewBox="0 0 240 30.000001" height="40" preserveAspectRatio="xMidYMid meet" version="1.0"><defs><g/><clipPath id="30b9d37f3c"><path d="M 3.871094 0 L 236.128906 0 L 236.128906 29.03125 L 3.871094 29.03125 Z M 3.871094 0 " clip-rule="nonzero"/></clipPath><radialGradient gradientTransform="matrix(1, 0, 0, 1, 3.870964, 0.00000193548)" gradientUnits="userSpaceOnUse" r="117.032662" cx="116.129036" id="de2e6e4736" cy="14.51613" fx="116.129036" fy="14.51613"><stop stop-opacity="1" stop-color="rgb(99.815369%, 97.932434%, 80.444336%)" offset="0"/><stop stop-opacity="1" stop-color="rgb(99.539185%, 97.831726%, 80.514526%)" offset="0.0078125"/><stop stop-opacity="1" stop-color="rgb(99.354553%, 97.764587%, 80.560303%)" offset="0.0117188"/><stop stop-opacity="1" stop-color="rgb(99.171448%, 97.697449%, 80.606079%)" offset="0.015625"/><stop stop-opacity="1" stop-color="rgb(98.986816%, 97.63031%, 80.651855%)" offset="0.0195312"/><stop stop-opacity="1" stop-color="rgb(98.802185%, 97.563171%, 80.699158%)" offset="0.0234375"/><stop stop-opacity="1" stop-color="rgb(98.61908%, 97.496033%, 80.744934%)" offset="0.0273438"/><stop stop-opacity="1" stop-color="rgb(98.434448%, 97.427368%, 80.79071%)" offset="0.03125"/><stop stop-opacity="1" stop-color="rgb(98.251343%, 97.360229%, 80.836487%)" offset="0.0351562"/><stop stop-opacity="1" stop-color="rgb(98.066711%, 97.293091%, 80.883789%)" offset="0.0390625"/><stop stop-opacity="1" stop-color="rgb(97.883606%, 97.225952%, 80.929565%)" offset="0.0429688"/><stop stop-opacity="1" stop-color="rgb(97.698975%, 97.158813%, 80.975342%)" offset="0.046875"/><stop stop-opacity="1" stop-color="rgb(97.514343%, 97.091675%, 81.021118%)" offset="0.0507812"/><stop stop-opacity="1" stop-color="rgb(97.331238%, 97.024536%, 81.066895%)" offset="0.0546875"/><stop stop-opacity="1" stop-color="rgb(97.146606%, 96.957397%, 81.114197%)" offset="0.0585938"/><stop stop-opacity="1" stop-color="rgb(96.963501%, 96.890259%, 81.159973%)" offset="0.0625"/><stop stop-opacity="1" stop-color="rgb(96.77887%, 96.82312%, 81.20575%)" offset="0.0664062"/><stop stop-opacity="1" stop-color="rgb(96.595764%, 96.755981%, 81.251526%)" offset="0.0703125"/><stop stop-opacity="1" stop-color="rgb(96.411133%, 96.688843%, 81.297302%)" offset="0.0742188"/><stop stop-opacity="1" stop-color="rgb(96.226501%, 96.621704%, 81.344604%)" offset="0.078125"/><stop stop-opacity="1" stop-color="rgb(96.043396%, 96.554565%, 81.390381%)" offset="0.0820312"/><stop stop-opacity="1" stop-color="rgb(95.858765%, 96.487427%, 81.436157%)" offset="0.0859375"/><stop stop-opacity="1" stop-color="rgb(95.675659%, 96.420288%, 81.481934%)" offset="0.0898438"/><stop stop-opacity="1" stop-color="rgb(95.491028%, 96.353149%, 81.52771%)" offset="0.09375"/><stop stop-opacity="1" stop-color="rgb(95.307922%, 96.286011%, 81.575012%)" offset="0.0976562"/><stop stop-opacity="1" stop-color="rgb(95.123291%, 96.218872%, 81.620789%)" offset="0.101562"/><stop stop-opacity="1" stop-color="rgb(94.93866%, 96.151733%, 81.666565%)" offset="0.105469"/><stop stop-opacity="1" stop-color="rgb(94.755554%, 96.084595%, 81.712341%)" offset="0.109375"/><stop stop-opacity="1" stop-color="rgb(94.570923%, 96.017456%, 81.758118%)" offset="0.113281"/><stop stop-opacity="1" stop-color="rgb(94.387817%, 95.950317%, 81.80542%)" offset="0.117188"/><stop stop-opacity="1" stop-color="rgb(94.203186%, 95.883179%, 81.851196%)" offset="0.121094"/><stop stop-opacity="1" stop-color="rgb(94.018555%, 95.81604%, 81.896973%)" offset="0.125"/><stop stop-opacity="1" stop-color="rgb(93.835449%, 95.748901%, 81.942749%)" offset="0.128906"/><stop stop-opacity="1" stop-color="rgb(93.650818%, 95.681763%, 81.990051%)" offset="0.132812"/><stop stop-opacity="1" stop-color="rgb(93.467712%, 95.614624%, 82.035828%)" offset="0.136719"/><stop stop-opacity="1" stop-color="rgb(93.283081%, 95.547485%, 82.081604%)" offset="0.140625"/><stop stop-opacity="1" stop-color="rgb(93.099976%, 95.480347%, 82.12738%)" offset="0.144531"/><stop stop-opacity="1" stop-color="rgb(92.915344%, 95.413208%, 82.173157%)" offset="0.148438"/><stop stop-opacity="1" stop-color="rgb(92.730713%, 95.346069%, 82.220459%)" offset="0.152344"/><stop stop-opacity="1" stop-color="rgb(92.547607%, 95.277405%, 82.266235%)" offset="0.15625"/><stop stop-opacity="1" stop-color="rgb(92.362976%, 95.210266%, 82.312012%)" offset="0.160156"/><stop stop-opacity="1" stop-color="rgb(92.179871%, 95.143127%, 82.357788%)" offset="0.164062"/><stop stop-opacity="1" stop-color="rgb(91.995239%, 95.075989%, 82.403564%)" offset="0.167969"/><stop stop-opacity="1" stop-color="rgb(91.812134%, 95.00885%, 82.450867%)" offset="0.171875"/><stop stop-opacity="1" stop-color="rgb(91.627502%, 94.941711%, 82.496643%)" offset="0.175781"/><stop stop-opacity="1" stop-color="rgb(91.442871%, 94.874573%, 82.542419%)" offset="0.179688"/><stop stop-opacity="1" stop-color="rgb(91.259766%, 94.807434%, 82.588196%)" offset="0.183594"/><stop stop-opacity="1" stop-color="rgb(91.075134%, 94.740295%, 82.633972%)" offset="0.1875"/><stop stop-opacity="1" stop-color="rgb(90.892029%, 94.673157%, 82.681274%)" offset="0.191406"/><stop stop-opacity="1" stop-color="rgb(90.707397%, 94.606018%, 82.727051%)" offset="0.195312"/><stop stop-opacity="1" stop-color="rgb(90.524292%, 94.538879%, 82.772827%)" offset="0.199219"/><stop stop-opacity="1" stop-color="rgb(90.339661%, 94.471741%, 82.818604%)" offset="0.203125"/><stop stop-opacity="1" stop-color="rgb(90.155029%, 94.404602%, 82.86438%)" offset="0.207031"/><stop stop-opacity="1" stop-color="rgb(89.971924%, 94.337463%, 82.911682%)" offset="0.210938"/><stop stop-opacity="1" stop-color="rgb(89.787292%, 94.270325%, 82.957458%)" offset="0.214844"/><stop stop-opacity="1" stop-color="rgb(89.604187%, 94.203186%, 83.003235%)" offset="0.21875"/><stop stop-opacity="1" stop-color="rgb(89.419556%, 94.136047%, 83.049011%)" offset="0.222656"/><stop stop-opacity="1" stop-color="rgb(89.23645%, 94.068909%, 83.096313%)" offset="0.226562"/><stop stop-opacity="1" stop-color="rgb(89.051819%, 94.00177%, 83.14209%)" offset="0.230469"/><stop stop-opacity="1" stop-color="rgb(88.867188%, 93.934631%, 83.187866%)" offset="0.234375"/><stop stop-opacity="1" stop-color="rgb(88.684082%, 93.867493%, 83.233643%)" offset="0.238281"/><stop stop-opacity="1" stop-color="rgb(88.499451%, 93.800354%, 83.279419%)" offset="0.242188"/><stop stop-opacity="1" stop-color="rgb(88.316345%, 93.733215%, 83.326721%)" offset="0.246094"/><stop stop-opacity="1" stop-color="rgb(88.131714%, 93.666077%, 83.372498%)" offset="0.25"/><stop stop-opacity="1" stop-color="rgb(87.85553%, 93.565369%, 83.441162%)" offset="0.253906"/><stop stop-opacity="1" stop-color="rgb(87.487793%, 93.431091%, 83.532715%)" offset="0.261719"/><stop stop-opacity="1" stop-color="rgb(87.120056%, 93.296814%, 83.625793%)" offset="0.269531"/><stop stop-opacity="1" stop-color="rgb(86.752319%, 93.161011%, 83.717346%)" offset="0.277344"/><stop stop-opacity="1" stop-color="rgb(86.383057%, 93.026733%, 83.810425%)" offset="0.285156"/><stop stop-opacity="1" stop-color="rgb(86.01532%, 92.892456%, 83.901978%)" offset="0.292969"/><stop stop-opacity="1" stop-color="rgb(85.647583%, 92.758179%, 83.99353%)" offset="0.300781"/><stop stop-opacity="1" stop-color="rgb(85.279846%, 92.623901%, 84.086609%)" offset="0.308594"/><stop stop-opacity="1" stop-color="rgb(84.912109%, 92.489624%, 84.178162%)" offset="0.316406"/><stop stop-opacity="1" stop-color="rgb(84.544373%, 92.355347%, 84.27124%)" offset="0.324219"/><stop stop-opacity="1" stop-color="rgb(84.176636%, 92.221069%, 84.362793%)" offset="0.332031"/><stop stop-opacity="1" stop-color="rgb(83.807373%, 92.086792%, 84.455872%)" offset="0.339844"/><stop stop-opacity="1" stop-color="rgb(83.439636%, 91.952515%, 84.547424%)" offset="0.347656"/><stop stop-opacity="1" stop-color="rgb(83.071899%, 91.818237%, 84.638977%)" offset="0.355469"/><stop stop-opacity="1" stop-color="rgb(82.704163%, 91.68396%, 84.732056%)" offset="0.363281"/><stop stop-opacity="1" stop-color="rgb(82.336426%, 91.549683%, 84.823608%)" offset="0.371094"/><stop stop-opacity="1" stop-color="rgb(81.968689%, 91.415405%, 84.916687%)" offset="0.378906"/><stop stop-opacity="1" stop-color="rgb(81.599426%, 91.281128%, 85.00824%)" offset="0.386719"/><stop stop-opacity="1" stop-color="rgb(81.231689%, 91.145325%, 85.099792%)" offset="0.394531"/><stop stop-opacity="1" stop-color="rgb(80.863953%, 91.011047%, 85.192871%)" offset="0.402344"/><stop stop-opacity="1" stop-color="rgb(80.496216%, 90.87677%, 85.284424%)" offset="0.410156"/><stop stop-opacity="1" stop-color="rgb(80.128479%, 90.742493%, 85.377502%)" offset="0.417969"/><stop stop-opacity="1" stop-color="rgb(79.760742%, 90.608215%, 85.469055%)" offset="0.425781"/><stop stop-opacity="1" stop-color="rgb(79.393005%, 90.473938%, 85.562134%)" offset="0.433594"/><stop stop-opacity="1" stop-color="rgb(79.023743%, 90.339661%, 85.653687%)" offset="0.441406"/><stop stop-opacity="1" stop-color="rgb(78.656006%, 90.205383%, 85.745239%)" offset="0.449219"/><stop stop-opacity="1" stop-color="rgb(78.288269%, 90.071106%, 85.838318%)" offset="0.457031"/><stop stop-opacity="1" stop-color="rgb(77.920532%, 89.936829%, 85.929871%)" offset="0.464844"/><stop stop-opacity="1" stop-color="rgb(77.552795%, 89.802551%, 86.022949%)" offset="0.472656"/><stop stop-opacity="1" stop-color="rgb(77.185059%, 89.668274%, 86.114502%)" offset="0.480469"/><stop stop-opacity="1" stop-color="rgb(76.817322%, 89.533997%, 86.206055%)" offset="0.488281"/><stop stop-opacity="1" stop-color="rgb(76.448059%, 89.399719%, 86.299133%)" offset="0.496094"/><stop stop-opacity="1" stop-color="rgb(76.173401%, 89.299011%, 86.367798%)" offset="0.503906"/><stop stop-opacity="1" stop-color="rgb(75.98877%, 89.231873%, 86.413574%)" offset="0.507812"/><stop stop-opacity="1" stop-color="rgb(75.804138%, 89.164734%, 86.460876%)" offset="0.511719"/><stop stop-opacity="1" stop-color="rgb(75.621033%, 89.097595%, 86.506653%)" offset="0.515625"/><stop stop-opacity="1" stop-color="rgb(75.436401%, 89.028931%, 86.552429%)" offset="0.519531"/><stop stop-opacity="1" stop-color="rgb(75.253296%, 88.961792%, 86.598206%)" offset="0.523438"/><stop stop-opacity="1" stop-color="rgb(75.068665%, 88.894653%, 86.645508%)" offset="0.527344"/><stop stop-opacity="1" stop-color="rgb(74.885559%, 88.827515%, 86.691284%)" offset="0.53125"/><stop stop-opacity="1" stop-color="rgb(74.700928%, 88.760376%, 86.737061%)" offset="0.535156"/><stop stop-opacity="1" stop-color="rgb(74.516296%, 88.693237%, 86.782837%)" offset="0.539062"/><stop stop-opacity="1" stop-color="rgb(74.333191%, 88.626099%, 86.828613%)" offset="0.542969"/><stop stop-opacity="1" stop-color="rgb(74.14856%, 88.55896%, 86.875916%)" offset="0.546875"/><stop stop-opacity="1" stop-color="rgb(73.965454%, 88.491821%, 86.921692%)" offset="0.550781"/><stop stop-opacity="1" stop-color="rgb(73.780823%, 88.424683%, 86.967468%)" offset="0.554688"/><stop stop-opacity="1" stop-color="rgb(73.597717%, 88.357544%, 87.013245%)" offset="0.558594"/><stop stop-opacity="1" stop-color="rgb(73.413086%, 88.290405%, 87.059021%)" offset="0.5625"/><stop stop-opacity="1" stop-color="rgb(73.228455%, 88.223267%, 87.106323%)" offset="0.566406"/><stop stop-opacity="1" stop-color="rgb(73.045349%, 88.156128%, 87.1521%)" offset="0.570312"/><stop stop-opacity="1" stop-color="rgb(72.860718%, 88.088989%, 87.197876%)" offset="0.574219"/><stop stop-opacity="1" stop-color="rgb(72.677612%, 88.021851%, 87.243652%)" offset="0.578125"/><stop stop-opacity="1" stop-color="rgb(72.492981%, 87.954712%, 87.289429%)" offset="0.582031"/><stop stop-opacity="1" stop-color="rgb(72.309875%, 87.887573%, 87.336731%)" offset="0.585938"/><stop stop-opacity="1" stop-color="rgb(72.125244%, 87.820435%, 87.382507%)" offset="0.589844"/><stop stop-opacity="1" stop-color="rgb(71.940613%, 87.753296%, 87.428284%)" offset="0.59375"/><stop stop-opacity="1" stop-color="rgb(71.757507%, 87.686157%, 87.47406%)" offset="0.597656"/><stop stop-opacity="1" stop-color="rgb(71.572876%, 87.619019%, 87.519836%)" offset="0.601562"/><stop stop-opacity="1" stop-color="rgb(71.389771%, 87.55188%, 87.567139%)" offset="0.605469"/><stop stop-opacity="1" stop-color="rgb(71.205139%, 87.484741%, 87.612915%)" offset="0.609375"/><stop stop-opacity="1" stop-color="rgb(71.020508%, 87.417603%, 87.658691%)" offset="0.613281"/><stop stop-opacity="1" stop-color="rgb(70.837402%, 87.350464%, 87.704468%)" offset="0.617188"/><stop stop-opacity="1" stop-color="rgb(70.652771%, 87.283325%, 87.75177%)" offset="0.621094"/><stop stop-opacity="1" stop-color="rgb(70.469666%, 87.216187%, 87.797546%)" offset="0.625"/><stop stop-opacity="1" stop-color="rgb(70.193481%, 87.115479%, 87.866211%)" offset="0.628906"/><stop stop-opacity="1" stop-color="rgb(69.825745%, 86.981201%, 87.957764%)" offset="0.636719"/><stop stop-opacity="1" stop-color="rgb(69.456482%, 86.845398%, 88.050842%)" offset="0.644531"/><stop stop-opacity="1" stop-color="rgb(69.088745%, 86.711121%, 88.142395%)" offset="0.652344"/><stop stop-opacity="1" stop-color="rgb(68.721008%, 86.576843%, 88.235474%)" offset="0.660156"/><stop stop-opacity="1" stop-color="rgb(68.353271%, 86.442566%, 88.327026%)" offset="0.667969"/><stop stop-opacity="1" stop-color="rgb(67.985535%, 86.308289%, 88.418579%)" offset="0.675781"/><stop stop-opacity="1" stop-color="rgb(67.617798%, 86.174011%, 88.511658%)" offset="0.683594"/><stop stop-opacity="1" stop-color="rgb(67.250061%, 86.039734%, 88.60321%)" offset="0.691406"/><stop stop-opacity="1" stop-color="rgb(66.880798%, 85.905457%, 88.696289%)" offset="0.699219"/><stop stop-opacity="1" stop-color="rgb(66.513062%, 85.771179%, 88.787842%)" offset="0.707031"/><stop stop-opacity="1" stop-color="rgb(66.145325%, 85.636902%, 88.88092%)" offset="0.714844"/><stop stop-opacity="1" stop-color="rgb(65.777588%, 85.502625%, 88.972473%)" offset="0.722656"/><stop stop-opacity="1" stop-color="rgb(65.409851%, 85.368347%, 89.064026%)" offset="0.730469"/><stop stop-opacity="1" stop-color="rgb(65.042114%, 85.23407%, 89.157104%)" offset="0.738281"/><stop stop-opacity="1" stop-color="rgb(64.672852%, 85.099792%, 89.248657%)" offset="0.746094"/><stop stop-opacity="1" stop-color="rgb(64.398193%, 84.999084%, 89.318848%)" offset="0.753906"/><stop stop-opacity="1" stop-color="rgb(64.213562%, 84.931946%, 89.364624%)" offset="0.757812"/><stop stop-opacity="1" stop-color="rgb(64.030457%, 84.864807%, 89.4104%)" offset="0.761719"/><stop stop-opacity="1" stop-color="rgb(63.845825%, 84.796143%, 89.456177%)" offset="0.765625"/><stop stop-opacity="1" stop-color="rgb(63.661194%, 84.729004%, 89.501953%)" offset="0.769531"/><stop stop-opacity="1" stop-color="rgb(63.478088%, 84.661865%, 89.549255%)" offset="0.773438"/><stop stop-opacity="1" stop-color="rgb(63.293457%, 84.594727%, 89.595032%)" offset="0.777344"/><stop stop-opacity="1" stop-color="rgb(63.110352%, 84.527588%, 89.640808%)" offset="0.78125"/><stop stop-opacity="1" stop-color="rgb(62.92572%, 84.460449%, 89.686584%)" offset="0.785156"/><stop stop-opacity="1" stop-color="rgb(62.742615%, 84.393311%, 89.732361%)" offset="0.789062"/><stop stop-opacity="1" stop-color="rgb(62.557983%, 84.326172%, 89.779663%)" offset="0.792969"/><stop stop-opacity="1" stop-color="rgb(62.373352%, 84.259033%, 89.825439%)" offset="0.796875"/><stop stop-opacity="1" stop-color="rgb(62.190247%, 84.191895%, 89.871216%)" offset="0.800781"/><stop stop-opacity="1" stop-color="rgb(62.005615%, 84.124756%, 89.916992%)" offset="0.804688"/><stop stop-opacity="1" stop-color="rgb(61.82251%, 84.057617%, 89.964294%)" offset="0.808594"/><stop stop-opacity="1" stop-color="rgb(61.637878%, 83.990479%, 90.010071%)" offset="0.8125"/><stop stop-opacity="1" stop-color="rgb(61.361694%, 83.889771%, 90.078735%)" offset="0.816406"/><stop stop-opacity="1" stop-color="rgb(60.993958%, 83.755493%, 90.170288%)" offset="0.824219"/><stop stop-opacity="1" stop-color="rgb(60.626221%, 83.621216%, 90.263367%)" offset="0.832031"/><stop stop-opacity="1" stop-color="rgb(60.258484%, 83.486938%, 90.354919%)" offset="0.839844"/><stop stop-opacity="1" stop-color="rgb(59.890747%, 83.352661%, 90.447998%)" offset="0.847656"/><stop stop-opacity="1" stop-color="rgb(59.521484%, 83.218384%, 90.539551%)" offset="0.855469"/><stop stop-opacity="1" stop-color="rgb(59.153748%, 83.084106%, 90.631104%)" offset="0.863281"/><stop stop-opacity="1" stop-color="rgb(58.786011%, 82.949829%, 90.724182%)" offset="0.871094"/><stop stop-opacity="1" stop-color="rgb(58.509827%, 82.849121%, 90.792847%)" offset="0.878906"/><stop stop-opacity="1" stop-color="rgb(58.326721%, 82.781982%, 90.838623%)" offset="0.882812"/><stop stop-opacity="1" stop-color="rgb(58.14209%, 82.713318%, 90.885925%)" offset="0.886719"/><stop stop-opacity="1" stop-color="rgb(57.958984%, 82.646179%, 90.931702%)" offset="0.890625"/><stop stop-opacity="1" stop-color="rgb(57.774353%, 82.579041%, 90.977478%)" offset="0.894531"/><stop stop-opacity="1" stop-color="rgb(57.589722%, 82.511902%, 91.023254%)" offset="0.898438"/><stop stop-opacity="1" stop-color="rgb(57.406616%, 82.444763%, 91.069031%)" offset="0.902344"/><stop stop-opacity="1" stop-color="rgb(57.221985%, 82.377625%, 91.116333%)" offset="0.90625"/><stop stop-opacity="1" stop-color="rgb(56.945801%, 82.276917%, 91.184998%)" offset="0.910156"/><stop stop-opacity="1" stop-color="rgb(56.578064%, 82.142639%, 91.27655%)" offset="0.917969"/><stop stop-opacity="1" stop-color="rgb(56.210327%, 82.008362%, 91.369629%)" offset="0.925781"/><stop stop-opacity="1" stop-color="rgb(55.84259%, 81.874084%, 91.461182%)" offset="0.933594"/><stop stop-opacity="1" stop-color="rgb(55.566406%, 81.773376%, 91.531372%)" offset="0.941406"/><stop stop-opacity="1" stop-color="rgb(55.383301%, 81.706238%, 91.577148%)" offset="0.945312"/><stop stop-opacity="1" stop-color="rgb(55.198669%, 81.639099%, 91.622925%)" offset="0.949219"/><stop stop-opacity="1" stop-color="rgb(55.014038%, 81.57196%, 91.668701%)" offset="0.953125"/><stop stop-opacity="1" stop-color="rgb(54.737854%, 81.471252%, 91.737366%)" offset="0.957031"/><stop stop-opacity="1" stop-color="rgb(54.370117%, 81.336975%, 91.830444%)" offset="0.964844"/><stop stop-opacity="1" stop-color="rgb(54.095459%, 81.236267%, 91.899109%)" offset="0.972656"/><stop stop-opacity="1" stop-color="rgb(53.910828%, 81.169128%, 91.944885%)" offset="0.976562"/><stop stop-opacity="1" stop-color="rgb(53.634644%, 81.06842%, 92.015076%)" offset="0.980469"/><stop stop-opacity="1" stop-color="rgb(53.358459%, 80.967712%, 92.08374%)" offset="0.988281"/><stop stop-opacity="1" stop-color="rgb(53.082275%, 80.867004%, 92.152405%)" offset="0.992188"/><stop stop-opacity="1" stop-color="rgb(52.89917%, 80.799866%, 92.199707%)" offset="1"/></radialGradient></defs><g clip-path="url(#30b9d37f3c)"><path fill="#ffffff" d="M 3.871094 0 L 236.128906 0 L 236.128906 29.03125 L 3.871094 29.03125 Z M 3.871094 0 " fill-opacity="1" fill-rule="nonzero"/><path fill="url(#de2e6e4736)" d="M 3.871094 0 L 3.871094 29.03125 L 236.128906 29.03125 L 236.128906 0 Z M 3.871094 0 " fill-rule="nonzero"/></g><g fill="#61b0b2" fill-opacity="0.4"><g transform="translate(42.066184, 21.089311)"><g><path d="M 0.359375 -10.15625 L 4.796875 -10.15625 L 4.796875 -9.890625 L 3.984375 -9.890625 L 3.984375 -0.28125 L 4.796875 -0.28125 L 4.796875 0 L 0.359375 0 L 0.359375 -0.28125 L 1.15625 -0.28125 L 1.15625 -9.890625 L 0.359375 -9.890625 Z M 0.359375 -10.15625 "/></g></g></g><g fill="#61b0b2" fill-opacity="0.4"><g transform="translate(47.219403, 21.089311)"><g><path d="M 8.5625 -9.890625 L 8.5625 0 L 6.53125 0 L 1.546875 -9.390625 L 1.546875 -0.28125 L 2.34375 -0.28125 L 2.34375 0 L 0.359375 0 L 0.359375 -0.28125 L 1.15625 -0.28125 L 1.15625 -9.890625 L 0.359375 -9.890625 L 0.359375 -10.15625 L 4.375 -10.15625 L 8.171875 -2.875 L 8.171875 -9.890625 L 7.375 -9.890625 L 7.375 -10.15625 L 9.359375 -10.15625 L 9.359375 -9.890625 Z M 8.5625 -9.890625 "/></g></g></g><g fill="#61b0b2" fill-opacity="0.4"><g transform="translate(56.945205, 21.089311)"><g><path d="M 10.359375 -5.25 C 10.359375 -3.257812 9.800781 -1.875 8.6875 -1.09375 C 7.644531 -0.363281 6.21875 0 4.40625 0 L 0.3125 0 L 0.3125 -0.28125 L 1.265625 -0.28125 L 1.265625 -9.890625 L 0.3125 -9.890625 L 0.3125 -10.15625 L 4.796875 -10.15625 C 6.648438 -10.15625 8.039062 -9.773438 8.96875 -9.015625 C 9.894531 -8.253906 10.359375 -7 10.359375 -5.25 Z M 4.09375 -0.28125 L 4.640625 -0.28125 C 5.617188 -0.28125 6.316406 -0.625 6.734375 -1.3125 C 7.160156 -2 7.375 -3.160156 7.375 -4.796875 L 7.375 -5.625 C 7.375 -7.800781 6.957031 -9.113281 6.125 -9.5625 C 5.726562 -9.78125 5.164062 -9.890625 4.4375 -9.890625 L 4.09375 -9.890625 Z M 4.09375 -0.28125 "/></g></g></g><g fill="#61b0b2" fill-opacity="0.4"><g transform="translate(67.904876, 21.089311)"><g><path d="M 7.265625 -4.484375 L 7.265625 -5.5625 C 7.265625 -7.332031 7.179688 -8.445312 7.015625 -8.90625 C 6.816406 -9.445312 6.539062 -9.78125 6.1875 -9.90625 C 5.976562 -9.976562 5.726562 -10.015625 5.4375 -10.015625 C 5.15625 -10.015625 4.910156 -9.972656 4.703125 -9.890625 C 4.492188 -9.816406 4.320312 -9.679688 4.1875 -9.484375 C 4.050781 -9.296875 3.941406 -9.09375 3.859375 -8.875 C 3.773438 -8.664062 3.707031 -8.367188 3.65625 -7.984375 C 3.601562 -7.421875 3.578125 -6.59375 3.578125 -5.5 L 3.578125 -4.453125 C 3.578125 -3.273438 3.617188 -2.4375 3.703125 -1.9375 C 3.796875 -1.4375 3.910156 -1.082031 4.046875 -0.875 C 4.347656 -0.394531 4.8125 -0.15625 5.4375 -0.15625 C 6.207031 -0.15625 6.703125 -0.476562 6.921875 -1.125 C 7.148438 -1.769531 7.265625 -2.890625 7.265625 -4.484375 Z M 5.40625 0.140625 C 3.789062 0.140625 2.582031 -0.296875 1.78125 -1.171875 C 0.988281 -2.046875 0.59375 -3.3125 0.59375 -4.96875 C 0.59375 -6.632812 1.019531 -7.941406 1.875 -8.890625 C 2.738281 -9.847656 3.953125 -10.328125 5.515625 -10.328125 C 7.085938 -10.328125 8.269531 -9.875 9.0625 -8.96875 C 9.863281 -8.0625 10.265625 -6.773438 10.265625 -5.109375 C 10.265625 -3.441406 9.859375 -2.148438 9.046875 -1.234375 C 8.242188 -0.316406 7.03125 0.140625 5.40625 0.140625 Z M 5.40625 0.140625 "/></g></g></g><g fill="#61b0b2" fill-opacity="0.4"><g transform="translate(78.762934, 21.089311)"><g><path d="M 8.5625 -9.890625 L 8.5625 0 L 6.53125 0 L 1.546875 -9.390625 L 1.546875 -0.28125 L 2.34375 -0.28125 L 2.34375 0 L 0.359375 0 L 0.359375 -0.28125 L 1.15625 -0.28125 L 1.15625 -9.890625 L 0.359375 -9.890625 L 0.359375 -10.15625 L 4.375 -10.15625 L 8.171875 -2.875 L 8.171875 -9.890625 L 7.375 -9.890625 L 7.375 -10.15625 L 9.359375 -10.15625 L 9.359375 -9.890625 Z M 8.5625 -9.890625 "/></g></g></g><g fill="#61b0b2" fill-opacity="0.4"><g transform="translate(88.488736, 21.089311)"><g><path d="M 0.3125 -10.15625 L 7.859375 -10.15625 L 8 -7.28125 L 7.734375 -7.28125 C 7.328125 -8.257812 6.898438 -8.929688 6.453125 -9.296875 C 6.015625 -9.660156 5.363281 -9.84375 4.5 -9.84375 L 3.984375 -9.84375 L 3.984375 -5.359375 L 4.484375 -5.359375 C 4.941406 -5.359375 5.320312 -5.53125 5.625 -5.875 C 5.9375 -6.21875 6.15625 -6.679688 6.28125 -7.265625 L 6.5 -7.265625 L 6.5 -2.96875 L 6.25 -2.96875 C 6.082031 -3.6875 5.847656 -4.203125 5.546875 -4.515625 C 5.253906 -4.828125 4.851562 -4.984375 4.34375 -4.984375 L 3.984375 -4.984375 L 3.984375 -0.3125 L 4.546875 -0.3125 C 5.429688 -0.3125 6.1875 -0.578125 6.8125 -1.109375 C 7.4375 -1.648438 7.863281 -2.335938 8.09375 -3.171875 L 8.390625 -3.171875 L 8.28125 0 L 0.3125 0 L 0.3125 -0.3125 L 1.15625 -0.3125 L 1.15625 -9.84375 L 0.3125 -9.84375 Z M 0.3125 -10.15625 "/></g></g></g><g fill="#61b0b2" fill-opacity="0.4"><g transform="translate(97.546798, 21.089311)"><g><path d="M 4.71875 -0.15625 C 5.195312 -0.15625 5.625 -0.285156 6 -0.546875 C 6.375 -0.804688 6.5625 -1.203125 6.5625 -1.734375 C 6.5625 -2.265625 6.359375 -2.671875 5.953125 -2.953125 C 5.554688 -3.234375 4.988281 -3.472656 4.25 -3.671875 C 3.507812 -3.878906 2.972656 -4.0625 2.640625 -4.21875 C 2.304688 -4.375 1.988281 -4.578125 1.6875 -4.828125 C 1.082031 -5.335938 0.78125 -6.117188 0.78125 -7.171875 C 0.78125 -8.035156 1.085938 -8.773438 1.703125 -9.390625 C 2.316406 -10.015625 3.15625 -10.328125 4.21875 -10.328125 C 4.738281 -10.328125 5.273438 -10.25 5.828125 -10.09375 C 6.378906 -9.945312 6.722656 -9.875 6.859375 -9.875 C 6.992188 -9.875 7.117188 -9.96875 7.234375 -10.15625 L 7.390625 -10.15625 L 7.484375 -7.234375 L 7.265625 -7.234375 C 6.796875 -8.066406 6.304688 -8.738281 5.796875 -9.25 C 5.285156 -9.757812 4.734375 -10.015625 4.140625 -10.015625 C 3.546875 -10.015625 3.082031 -9.875 2.75 -9.59375 C 2.425781 -9.320312 2.265625 -8.957031 2.265625 -8.5 C 2.265625 -8.039062 2.457031 -7.6875 2.84375 -7.4375 C 3.238281 -7.1875 3.722656 -6.984375 4.296875 -6.828125 C 4.867188 -6.679688 5.242188 -6.578125 5.421875 -6.515625 C 5.597656 -6.460938 5.816406 -6.382812 6.078125 -6.28125 C 6.347656 -6.175781 6.566406 -6.066406 6.734375 -5.953125 C 6.910156 -5.847656 7.09375 -5.707031 7.28125 -5.53125 C 7.46875 -5.363281 7.613281 -5.179688 7.71875 -4.984375 C 7.976562 -4.515625 8.109375 -3.960938 8.109375 -3.328125 C 8.109375 -2.273438 7.78125 -1.429688 7.125 -0.796875 C 6.476562 -0.171875 5.625 0.140625 4.5625 0.140625 C 4.007812 0.140625 3.375 0.0664062 2.65625 -0.078125 C 1.945312 -0.222656 1.554688 -0.296875 1.484375 -0.296875 C 1.347656 -0.296875 1.21875 -0.148438 1.09375 0.140625 L 0.890625 0.140625 L 0.734375 -3.3125 L 0.984375 -3.3125 C 1.410156 -2.46875 1.953125 -1.726562 2.609375 -1.09375 C 3.273438 -0.46875 3.976562 -0.15625 4.71875 -0.15625 Z M 4.71875 -0.15625 "/></g></g></g><g fill="#61b0b2" fill-opacity="0.4"><g transform="translate(106.256464, 21.089311)"><g><path d="M 0.359375 -10.15625 L 4.796875 -10.15625 L 4.796875 -9.890625 L 3.984375 -9.890625 L 3.984375 -0.28125 L 4.796875 -0.28125 L 4.796875 0 L 0.359375 0 L 0.359375 -0.28125 L 1.15625 -0.28125 L 1.15625 -9.890625 L 0.359375 -9.890625 Z M 0.359375 -10.15625 "/></g></g></g><g fill="#61b0b2" fill-opacity="0.4"><g transform="translate(111.409683, 21.089311)"><g><path d="M 6.265625 -0.28125 L 5.21875 -3.40625 L 2.34375 -3.40625 L 1.21875 -0.28125 L 2.3125 -0.28125 L 2.3125 0 L 0.09375 0 L 0.09375 -0.28125 L 0.765625 -0.28125 L 4.46875 -10.25 L 5.65625 -10.25 L 9.3125 -0.28125 L 9.984375 -0.28125 L 9.984375 0 L 5.234375 0 L 5.234375 -0.28125 Z M 3.828125 -7.53125 L 2.46875 -3.734375 L 5.09375 -3.734375 Z M 3.828125 -7.53125 "/></g></g></g><g fill="#61b0b2" fill-opacity="0.4"><g transform="translate(121.483869, 21.089311)"><g/></g></g><g fill="#61b0b2" fill-opacity="0.4"><g transform="translate(124.096765, 21.089311)"><g><path d="M 7.46875 3.28125 C 7.945312 3.28125 8.3125 3.050781 8.5625 2.59375 C 8.820312 2.144531 8.953125 1.582031 8.953125 0.90625 C 8.953125 0.238281 8.695312 -0.4375 8.1875 -1.125 C 7.445312 -0.28125 6.429688 0.140625 5.140625 0.140625 C 3.859375 0.140625 2.835938 -0.0703125 2.078125 -0.5 C 1.316406 -0.9375 0.9375 -1.625 0.9375 -2.5625 C 0.9375 -3.21875 1.109375 -3.742188 1.453125 -4.140625 C 1.804688 -4.535156 2.394531 -4.828125 3.21875 -5.015625 C 2.363281 -5.785156 1.9375 -6.625 1.9375 -7.53125 C 1.9375 -8.445312 2.257812 -9.140625 2.90625 -9.609375 C 3.550781 -10.085938 4.351562 -10.328125 5.3125 -10.328125 C 6.269531 -10.328125 6.988281 -10.148438 7.46875 -9.796875 C 7.945312 -9.453125 8.1875 -8.984375 8.1875 -8.390625 C 8.1875 -7.359375 7.40625 -6.570312 5.84375 -6.03125 C 6.039062 -5.90625 6.394531 -5.6875 6.90625 -5.375 C 7.976562 -4.675781 8.738281 -4.113281 9.1875 -3.6875 C 9.332031 -4.375 9.414062 -5.082031 9.4375 -5.8125 L 8.28125 -5.8125 L 8.28125 -6.09375 L 10.8125 -6.09375 L 10.8125 -5.8125 L 9.796875 -5.8125 C 9.773438 -4.894531 9.679688 -4.078125 9.515625 -3.359375 C 9.929688 -2.890625 10.242188 -2.441406 10.453125 -2.015625 C 10.671875 -1.585938 10.78125 -1.050781 10.78125 -0.40625 C 10.78125 0.632812 10.410156 1.566406 9.671875 2.390625 C 8.941406 3.210938 8.109375 3.625 7.171875 3.625 C 6.546875 3.625 6.054688 3.492188 5.703125 3.234375 C 5.359375 2.972656 5.1875 2.640625 5.1875 2.234375 C 5.1875 1.828125 5.296875 1.507812 5.515625 1.28125 C 5.742188 1.050781 6.035156 0.9375 6.390625 0.9375 C 7.160156 0.9375 7.546875 1.285156 7.546875 1.984375 C 7.546875 2.128906 7.519531 2.304688 7.46875 2.515625 L 6.953125 2.515625 C 6.773438 3.023438 6.945312 3.28125 7.46875 3.28125 Z M 5.5 -0.234375 C 6.53125 -0.234375 7.34375 -0.628906 7.9375 -1.421875 C 7.488281 -1.890625 6.863281 -2.394531 6.0625 -2.9375 C 4.675781 -3.84375 3.796875 -4.460938 3.421875 -4.796875 C 3.273438 -4.484375 3.203125 -3.851562 3.203125 -2.90625 C 3.203125 -1.957031 3.390625 -1.273438 3.765625 -0.859375 C 4.148438 -0.441406 4.726562 -0.234375 5.5 -0.234375 Z M 5.234375 -10.015625 C 4.867188 -10.015625 4.554688 -9.898438 4.296875 -9.671875 C 4.035156 -9.441406 3.90625 -9.082031 3.90625 -8.59375 C 3.90625 -8.101562 4.019531 -7.695312 4.25 -7.375 C 4.476562 -7.050781 4.925781 -6.664062 5.59375 -6.21875 C 6 -6.425781 6.25 -6.679688 6.34375 -6.984375 C 6.445312 -7.285156 6.5 -7.722656 6.5 -8.296875 C 6.5 -9.441406 6.078125 -10.015625 5.234375 -10.015625 Z M 5.234375 -10.015625 "/></g></g></g><g fill="#61b0b2" fill-opacity="0.4"><g transform="translate(136.029014, 21.089311)"><g/></g></g><g fill="#61b0b2" fill-opacity="0.4"><g transform="translate(138.64191, 21.089311)"><g><path d="M 6.234375 -2.625 L 8.765625 -9.890625 L 7.640625 -9.890625 L 7.640625 -10.15625 L 9.859375 -10.15625 L 9.859375 -9.890625 L 9.171875 -9.890625 L 5.671875 0.140625 L 4.453125 0.140625 L 0.75 -9.890625 L 0.09375 -9.890625 L 0.09375 -10.15625 L 4.828125 -10.15625 L 4.828125 -9.890625 L 3.796875 -9.890625 Z M 6.234375 -2.625 "/></g></g></g><g fill="#61b0b2" fill-opacity="0.4"><g transform="translate(148.585446, 21.089311)"><g><path d="M 0.359375 -10.15625 L 4.796875 -10.15625 L 4.796875 -9.890625 L 3.984375 -9.890625 L 3.984375 -0.28125 L 4.796875 -0.28125 L 4.796875 0 L 0.359375 0 L 0.359375 -0.28125 L 1.15625 -0.28125 L 1.15625 -9.890625 L 0.359375 -9.890625 Z M 0.359375 -10.15625 "/></g></g></g><g fill="#61b0b2" fill-opacity="0.4"><g transform="translate(153.738665, 21.089311)"><g><path d="M 0.3125 -10.15625 L 7.859375 -10.15625 L 8 -7.28125 L 7.734375 -7.28125 C 7.328125 -8.257812 6.898438 -8.929688 6.453125 -9.296875 C 6.015625 -9.660156 5.363281 -9.84375 4.5 -9.84375 L 3.984375 -9.84375 L 3.984375 -5.359375 L 4.484375 -5.359375 C 4.941406 -5.359375 5.320312 -5.53125 5.625 -5.875 C 5.9375 -6.21875 6.15625 -6.679688 6.28125 -7.265625 L 6.5 -7.265625 L 6.5 -2.96875 L 6.25 -2.96875 C 6.082031 -3.6875 5.847656 -4.203125 5.546875 -4.515625 C 5.253906 -4.828125 4.851562 -4.984375 4.34375 -4.984375 L 3.984375 -4.984375 L 3.984375 -0.3125 L 4.546875 -0.3125 C 5.429688 -0.3125 6.1875 -0.578125 6.8125 -1.109375 C 7.4375 -1.648438 7.863281 -2.335938 8.09375 -3.171875 L 8.390625 -3.171875 L 8.28125 0 L 0.3125 0 L 0.3125 -0.3125 L 1.15625 -0.3125 L 1.15625 -9.84375 L 0.3125 -9.84375 Z M 0.3125 -10.15625 "/></g></g></g><g fill="#61b0b2" fill-opacity="0.4"><g transform="translate(162.796726, 21.089311)"><g><path d="M 9.234375 -10.15625 L 9.375 -6.515625 L 9.09375 -6.515625 C 8.675781 -7.804688 8.300781 -8.6875 7.96875 -9.15625 C 7.632812 -9.625 7.160156 -9.859375 6.546875 -9.859375 L 6.375 -9.859375 L 6.375 -0.3125 L 7.609375 -0.3125 L 7.609375 0 L 2.3125 0 L 2.3125 -0.3125 L 3.546875 -0.3125 L 3.546875 -9.859375 L 3.359375 -9.859375 C 2.734375 -9.859375 2.25 -9.613281 1.90625 -9.125 C 1.570312 -8.632812 1.203125 -7.765625 0.796875 -6.515625 L 0.515625 -6.515625 L 0.671875 -10.15625 Z M 9.234375 -10.15625 "/></g></g></g><g fill="#61b0b2" fill-opacity="0.4"><g transform="translate(172.711234, 21.089311)"><g><path d="M 8.5625 -9.890625 L 8.5625 0 L 6.53125 0 L 1.546875 -9.390625 L 1.546875 -0.28125 L 2.34375 -0.28125 L 2.34375 0 L 0.359375 0 L 0.359375 -0.28125 L 1.15625 -0.28125 L 1.15625 -9.890625 L 0.359375 -9.890625 L 0.359375 -10.15625 L 4.375 -10.15625 L 8.171875 -2.875 L 8.171875 -9.890625 L 7.375 -9.890625 L 7.375 -10.15625 L 9.359375 -10.15625 L 9.359375 -9.890625 Z M 8.5625 -9.890625 "/></g></g></g><g fill="#61b0b2" fill-opacity="0.4"><g transform="translate(182.437035, 21.089311)"><g><path d="M 6.265625 -0.28125 L 5.21875 -3.40625 L 2.34375 -3.40625 L 1.21875 -0.28125 L 2.3125 -0.28125 L 2.3125 0 L 0.09375 0 L 0.09375 -0.28125 L 0.765625 -0.28125 L 4.46875 -10.25 L 5.65625 -10.25 L 9.3125 -0.28125 L 9.984375 -0.28125 L 9.984375 0 L 5.234375 0 L 5.234375 -0.28125 Z M 3.828125 -7.53125 L 2.46875 -3.734375 L 5.09375 -3.734375 Z M 3.828125 -7.53125 "/></g></g></g><g fill="#61b0b2" fill-opacity="0.4"><g transform="translate(192.511221, 21.089311)"><g><path d="M 7.953125 -10.15625 L 11.828125 -10.15625 L 11.828125 -9.890625 L 11.03125 -9.890625 L 11.03125 -0.28125 L 11.828125 -0.28125 L 11.828125 0 L 7.40625 0 L 7.40625 -0.28125 L 8.203125 -0.28125 L 8.203125 -9.34375 L 8.140625 -9.34375 L 5.96875 0 L 4.15625 0 L 1.59375 -9.390625 L 1.53125 -9.390625 L 1.53125 -0.28125 L 2.34375 -0.28125 L 2.34375 0 L 0.359375 0 L 0.359375 -0.28125 L 1.15625 -0.28125 L 1.15625 -9.890625 L 0.359375 -9.890625 L 0.359375 -10.15625 L 4.28125 -10.15625 L 6.21875 -2.6875 Z M 7.953125 -10.15625 "/></g></g></g><g fill="#333333" fill-opacity="1"><g transform="translate(41.424653, 20.447779)"><g><path d="M 0.359375 -10.15625 L 4.796875 -10.15625 L 4.796875 -9.890625 L 3.984375 -9.890625 L 3.984375 -0.28125 L 4.796875 -0.28125 L 4.796875 0 L 0.359375 0 L 0.359375 -0.28125 L 1.15625 -0.28125 L 1.15625 -9.890625 L 0.359375 -9.890625 Z M 0.359375 -10.15625 "/></g></g></g><g fill="#333333" fill-opacity="1"><g transform="translate(46.577872, 20.447779)"><g><path d="M 8.5625 -9.890625 L 8.5625 0 L 6.53125 0 L 1.546875 -9.390625 L 1.546875 -0.28125 L 2.34375 -0.28125 L 2.34375 0 L 0.359375 0 L 0.359375 -0.28125 L 1.15625 -0.28125 L 1.15625 -9.890625 L 0.359375 -9.890625 L 0.359375 -10.15625 L 4.375 -10.15625 L 8.171875 -2.875 L 8.171875 -9.890625 L 7.375 -9.890625 L 7.375 -10.15625 L 9.359375 -10.15625 L 9.359375 -9.890625 Z M 8.5625 -9.890625 "/></g></g></g><g fill="#333333" fill-opacity="1"><g transform="translate(56.303674, 20.447779)"><g><path d="M 10.359375 -5.25 C 10.359375 -3.257812 9.800781 -1.875 8.6875 -1.09375 C 7.644531 -0.363281 6.21875 0 4.40625 0 L 0.3125 0 L 0.3125 -0.28125 L 1.265625 -0.28125 L 1.265625 -9.890625 L 0.3125 -9.890625 L 0.3125 -10.15625 L 4.796875 -10.15625 C 6.648438 -10.15625 8.039062 -9.773438 8.96875 -9.015625 C 9.894531 -8.253906 10.359375 -7 10.359375 -5.25 Z M 4.09375 -0.28125 L 4.640625 -0.28125 C 5.617188 -0.28125 6.316406 -0.625 6.734375 -1.3125 C 7.160156 -2 7.375 -3.160156 7.375 -4.796875 L 7.375 -5.625 C 7.375 -7.800781 6.957031 -9.113281 6.125 -9.5625 C 5.726562 -9.78125 5.164062 -9.890625 4.4375 -9.890625 L 4.09375 -9.890625 Z M 4.09375 -0.28125 "/></g></g></g><g fill="#333333" fill-opacity="1"><g transform="translate(67.263344, 20.447779)"><g><path d="M 7.265625 -4.484375 L 7.265625 -5.5625 C 7.265625 -7.332031 7.179688 -8.445312 7.015625 -8.90625 C 6.816406 -9.445312 6.539062 -9.78125 6.1875 -9.90625 C 5.976562 -9.976562 5.726562 -10.015625 5.4375 -10.015625 C 5.15625 -10.015625 4.910156 -9.972656 4.703125 -9.890625 C 4.492188 -9.816406 4.320312 -9.679688 4.1875 -9.484375 C 4.050781 -9.296875 3.941406 -9.09375 3.859375 -8.875 C 3.773438 -8.664062 3.707031 -8.367188 3.65625 -7.984375 C 3.601562 -7.421875 3.578125 -6.59375 3.578125 -5.5 L 3.578125 -4.453125 C 3.578125 -3.273438 3.617188 -2.4375 3.703125 -1.9375 C 3.796875 -1.4375 3.910156 -1.082031 4.046875 -0.875 C 4.347656 -0.394531 4.8125 -0.15625 5.4375 -0.15625 C 6.207031 -0.15625 6.703125 -0.476562 6.921875 -1.125 C 7.148438 -1.769531 7.265625 -2.890625 7.265625 -4.484375 Z M 5.40625 0.140625 C 3.789062 0.140625 2.582031 -0.296875 1.78125 -1.171875 C 0.988281 -2.046875 0.59375 -3.3125 0.59375 -4.96875 C 0.59375 -6.632812 1.019531 -7.941406 1.875 -8.890625 C 2.738281 -9.847656 3.953125 -10.328125 5.515625 -10.328125 C 7.085938 -10.328125 8.269531 -9.875 9.0625 -8.96875 C 9.863281 -8.0625 10.265625 -6.773438 10.265625 -5.109375 C 10.265625 -3.441406 9.859375 -2.148438 9.046875 -1.234375 C 8.242188 -0.316406 7.03125 0.140625 5.40625 0.140625 Z M 5.40625 0.140625 "/></g></g></g><g fill="#333333" fill-opacity="1"><g transform="translate(78.121403, 20.447779)"><g><path d="M 8.5625 -9.890625 L 8.5625 0 L 6.53125 0 L 1.546875 -9.390625 L 1.546875 -0.28125 L 2.34375 -0.28125 L 2.34375 0 L 0.359375 0 L 0.359375 -0.28125 L 1.15625 -0.28125 L 1.15625 -9.890625 L 0.359375 -9.890625 L 0.359375 -10.15625 L 4.375 -10.15625 L 8.171875 -2.875 L 8.171875 -9.890625 L 7.375 -9.890625 L 7.375 -10.15625 L 9.359375 -10.15625 L 9.359375 -9.890625 Z M 8.5625 -9.890625 "/></g></g></g><g fill="#333333" fill-opacity="1"><g transform="translate(87.847205, 20.447779)"><g><path d="M 0.3125 -10.15625 L 7.859375 -10.15625 L 8 -7.28125 L 7.734375 -7.28125 C 7.328125 -8.257812 6.898438 -8.929688 6.453125 -9.296875 C 6.015625 -9.660156 5.363281 -9.84375 4.5 -9.84375 L 3.984375 -9.84375 L 3.984375 -5.359375 L 4.484375 -5.359375 C 4.941406 -5.359375 5.320312 -5.53125 5.625 -5.875 C 5.9375 -6.21875 6.15625 -6.679688 6.28125 -7.265625 L 6.5 -7.265625 L 6.5 -2.96875 L 6.25 -2.96875 C 6.082031 -3.6875 5.847656 -4.203125 5.546875 -4.515625 C 5.253906 -4.828125 4.851562 -4.984375 4.34375 -4.984375 L 3.984375 -4.984375 L 3.984375 -0.3125 L 4.546875 -0.3125 C 5.429688 -0.3125 6.1875 -0.578125 6.8125 -1.109375 C 7.4375 -1.648438 7.863281 -2.335938 8.09375 -3.171875 L 8.390625 -3.171875 L 8.28125 0 L 0.3125 0 L 0.3125 -0.3125 L 1.15625 -0.3125 L 1.15625 -9.84375 L 0.3125 -9.84375 Z M 0.3125 -10.15625 "/></g></g></g><g fill="#333333" fill-opacity="1"><g transform="translate(96.905266, 20.447779)"><g><path d="M 4.71875 -0.15625 C 5.195312 -0.15625 5.625 -0.285156 6 -0.546875 C 6.375 -0.804688 6.5625 -1.203125 6.5625 -1.734375 C 6.5625 -2.265625 6.359375 -2.671875 5.953125 -2.953125 C 5.554688 -3.234375 4.988281 -3.472656 4.25 -3.671875 C 3.507812 -3.878906 2.972656 -4.0625 2.640625 -4.21875 C 2.304688 -4.375 1.988281 -4.578125 1.6875 -4.828125 C 1.082031 -5.335938 0.78125 -6.117188 0.78125 -7.171875 C 0.78125 -8.035156 1.085938 -8.773438 1.703125 -9.390625 C 2.316406 -10.015625 3.15625 -10.328125 4.21875 -10.328125 C 4.738281 -10.328125 5.273438 -10.25 5.828125 -10.09375 C 6.378906 -9.945312 6.722656 -9.875 6.859375 -9.875 C 6.992188 -9.875 7.117188 -9.96875 7.234375 -10.15625 L 7.390625 -10.15625 L 7.484375 -7.234375 L 7.265625 -7.234375 C 6.796875 -8.066406 6.304688 -8.738281 5.796875 -9.25 C 5.285156 -9.757812 4.734375 -10.015625 4.140625 -10.015625 C 3.546875 -10.015625 3.082031 -9.875 2.75 -9.59375 C 2.425781 -9.320312 2.265625 -8.957031 2.265625 -8.5 C 2.265625 -8.039062 2.457031 -7.6875 2.84375 -7.4375 C 3.238281 -7.1875 3.722656 -6.984375 4.296875 -6.828125 C 4.867188 -6.679688 5.242188 -6.578125 5.421875 -6.515625 C 5.597656 -6.460938 5.816406 -6.382812 6.078125 -6.28125 C 6.347656 -6.175781 6.566406 -6.066406 6.734375 -5.953125 C 6.910156 -5.847656 7.09375 -5.707031 7.28125 -5.53125 C 7.46875 -5.363281 7.613281 -5.179688 7.71875 -4.984375 C 7.976562 -4.515625 8.109375 -3.960938 8.109375 -3.328125 C 8.109375 -2.273438 7.78125 -1.429688 7.125 -0.796875 C 6.476562 -0.171875 5.625 0.140625 4.5625 0.140625 C 4.007812 0.140625 3.375 0.0664062 2.65625 -0.078125 C 1.945312 -0.222656 1.554688 -0.296875 1.484375 -0.296875 C 1.347656 -0.296875 1.21875 -0.148438 1.09375 0.140625 L 0.890625 0.140625 L 0.734375 -3.3125 L 0.984375 -3.3125 C 1.410156 -2.46875 1.953125 -1.726562 2.609375 -1.09375 C 3.273438 -0.46875 3.976562 -0.15625 4.71875 -0.15625 Z M 4.71875 -0.15625 "/></g></g></g><g fill="#333333" fill-opacity="1"><g transform="translate(105.614932, 20.447779)"><g><path d="M 0.359375 -10.15625 L 4.796875 -10.15625 L 4.796875 -9.890625 L 3.984375 -9.890625 L 3.984375 -0.28125 L 4.796875 -0.28125 L 4.796875 0 L 0.359375 0 L 0.359375 -0.28125 L 1.15625 -0.28125 L 1.15625 -9.890625 L 0.359375 -9.890625 Z M 0.359375 -10.15625 "/></g></g></g><g fill="#333333" fill-opacity="1"><g transform="translate(110.768151, 20.447779)"><g><path d="M 6.265625 -0.28125 L 5.21875 -3.40625 L 2.34375 -3.40625 L 1.21875 -0.28125 L 2.3125 -0.28125 L 2.3125 0 L 0.09375 0 L 0.09375 -0.28125 L 0.765625 -0.28125 L 4.46875 -10.25 L 5.65625 -10.25 L 9.3125 -0.28125 L 9.984375 -0.28125 L 9.984375 0 L 5.234375 0 L 5.234375 -0.28125 Z M 3.828125 -7.53125 L 2.46875 -3.734375 L 5.09375 -3.734375 Z M 3.828125 -7.53125 "/></g></g></g><g fill="#333333" fill-opacity="1"><g transform="translate(120.842337, 20.447779)"><g/></g></g><g fill="#333333" fill-opacity="1"><g transform="translate(123.455234, 20.447779)"><g><path d="M 7.46875 3.28125 C 7.945312 3.28125 8.3125 3.050781 8.5625 2.59375 C 8.820312 2.144531 8.953125 1.582031 8.953125 0.90625 C 8.953125 0.238281 8.695312 -0.4375 8.1875 -1.125 C 7.445312 -0.28125 6.429688 0.140625 5.140625 0.140625 C 3.859375 0.140625 2.835938 -0.0703125 2.078125 -0.5 C 1.316406 -0.9375 0.9375 -1.625 0.9375 -2.5625 C 0.9375 -3.21875 1.109375 -3.742188 1.453125 -4.140625 C 1.804688 -4.535156 2.394531 -4.828125 3.21875 -5.015625 C 2.363281 -5.785156 1.9375 -6.625 1.9375 -7.53125 C 1.9375 -8.445312 2.257812 -9.140625 2.90625 -9.609375 C 3.550781 -10.085938 4.351562 -10.328125 5.3125 -10.328125 C 6.269531 -10.328125 6.988281 -10.148438 7.46875 -9.796875 C 7.945312 -9.453125 8.1875 -8.984375 8.1875 -8.390625 C 8.1875 -7.359375 7.40625 -6.570312 5.84375 -6.03125 C 6.039062 -5.90625 6.394531 -5.6875 6.90625 -5.375 C 7.976562 -4.675781 8.738281 -4.113281 9.1875 -3.6875 C 9.332031 -4.375 9.414062 -5.082031 9.4375 -5.8125 L 8.28125 -5.8125 L 8.28125 -6.09375 L 10.8125 -6.09375 L 10.8125 -5.8125 L 9.796875 -5.8125 C 9.773438 -4.894531 9.679688 -4.078125 9.515625 -3.359375 C 9.929688 -2.890625 10.242188 -2.441406 10.453125 -2.015625 C 10.671875 -1.585938 10.78125 -1.050781 10.78125 -0.40625 C 10.78125 0.632812 10.410156 1.566406 9.671875 2.390625 C 8.941406 3.210938 8.109375 3.625 7.171875 3.625 C 6.546875 3.625 6.054688 3.492188 5.703125 3.234375 C 5.359375 2.972656 5.1875 2.640625 5.1875 2.234375 C 5.1875 1.828125 5.296875 1.507812 5.515625 1.28125 C 5.742188 1.050781 6.035156 0.9375 6.390625 0.9375 C 7.160156 0.9375 7.546875 1.285156 7.546875 1.984375 C 7.546875 2.128906 7.519531 2.304688 7.46875 2.515625 L 6.953125 2.515625 C 6.773438 3.023438 6.945312 3.28125 7.46875 3.28125 Z M 5.5 -0.234375 C 6.53125 -0.234375 7.34375 -0.628906 7.9375 -1.421875 C 7.488281 -1.890625 6.863281 -2.394531 6.0625 -2.9375 C 4.675781 -3.84375 3.796875 -4.460938 3.421875 -4.796875 C 3.273438 -4.484375 3.203125 -3.851562 3.203125 -2.90625 C 3.203125 -1.957031 3.390625 -1.273438 3.765625 -0.859375 C 4.148438 -0.441406 4.726562 -0.234375 5.5 -0.234375 Z M 5.234375 -10.015625 C 4.867188 -10.015625 4.554688 -9.898438 4.296875 -9.671875 C 4.035156 -9.441406 3.90625 -9.082031 3.90625 -8.59375 C 3.90625 -8.101562 4.019531 -7.695312 4.25 -7.375 C 4.476562 -7.050781 4.925781 -6.664062 5.59375 -6.21875 C 6 -6.425781 6.25 -6.679688 6.34375 -6.984375 C 6.445312 -7.285156 6.5 -7.722656 6.5 -8.296875 C 6.5 -9.441406 6.078125 -10.015625 5.234375 -10.015625 Z M 5.234375 -10.015625 "/></g></g></g><g fill="#333333" fill-opacity="1"><g transform="translate(135.387482, 20.447779)"><g/></g></g><g fill="#333333" fill-opacity="1"><g transform="translate(138.000379, 20.447779)"><g><path d="M 6.234375 -2.625 L 8.765625 -9.890625 L 7.640625 -9.890625 L 7.640625 -10.15625 L 9.859375 -10.15625 L 9.859375 -9.890625 L 9.171875 -9.890625 L 5.671875 0.140625 L 4.453125 0.140625 L 0.75 -9.890625 L 0.09375 -9.890625 L 0.09375 -10.15625 L 4.828125 -10.15625 L 4.828125 -9.890625 L 3.796875 -9.890625 Z M 6.234375 -2.625 "/></g></g></g><g fill="#333333" fill-opacity="1"><g transform="translate(147.943914, 20.447779)"><g><path d="M 0.359375 -10.15625 L 4.796875 -10.15625 L 4.796875 -9.890625 L 3.984375 -9.890625 L 3.984375 -0.28125 L 4.796875 -0.28125 L 4.796875 0 L 0.359375 0 L 0.359375 -0.28125 L 1.15625 -0.28125 L 1.15625 -9.890625 L 0.359375 -9.890625 Z M 0.359375 -10.15625 "/></g></g></g><g fill="#333333" fill-opacity="1"><g transform="translate(153.097133, 20.447779)"><g><path d="M 0.3125 -10.15625 L 7.859375 -10.15625 L 8 -7.28125 L 7.734375 -7.28125 C 7.328125 -8.257812 6.898438 -8.929688 6.453125 -9.296875 C 6.015625 -9.660156 5.363281 -9.84375 4.5 -9.84375 L 3.984375 -9.84375 L 3.984375 -5.359375 L 4.484375 -5.359375 C 4.941406 -5.359375 5.320312 -5.53125 5.625 -5.875 C 5.9375 -6.21875 6.15625 -6.679688 6.28125 -7.265625 L 6.5 -7.265625 L 6.5 -2.96875 L 6.25 -2.96875 C 6.082031 -3.6875 5.847656 -4.203125 5.546875 -4.515625 C 5.253906 -4.828125 4.851562 -4.984375 4.34375 -4.984375 L 3.984375 -4.984375 L 3.984375 -0.3125 L 4.546875 -0.3125 C 5.429688 -0.3125 6.1875 -0.578125 6.8125 -1.109375 C 7.4375 -1.648438 7.863281 -2.335938 8.09375 -3.171875 L 8.390625 -3.171875 L 8.28125 0 L 0.3125 0 L 0.3125 -0.3125 L 1.15625 -0.3125 L 1.15625 -9.84375 L 0.3125 -9.84375 Z M 0.3125 -10.15625 "/></g></g></g><g fill="#333333" fill-opacity="1"><g transform="translate(162.155194, 20.447779)"><g><path d="M 9.234375 -10.15625 L 9.375 -6.515625 L 9.09375 -6.515625 C 8.675781 -7.804688 8.300781 -8.6875 7.96875 -9.15625 C 7.632812 -9.625 7.160156 -9.859375 6.546875 -9.859375 L 6.375 -9.859375 L 6.375 -0.3125 L 7.609375 -0.3125 L 7.609375 0 L 2.3125 0 L 2.3125 -0.3125 L 3.546875 -0.3125 L 3.546875 -9.859375 L 3.359375 -9.859375 C 2.734375 -9.859375 2.25 -9.613281 1.90625 -9.125 C 1.570312 -8.632812 1.203125 -7.765625 0.796875 -6.515625 L 0.515625 -6.515625 L 0.671875 -10.15625 Z M 9.234375 -10.15625 "/></g></g></g><g fill="#333333" fill-opacity="1"><g transform="translate(172.069702, 20.447779)"><g><path d="M 8.5625 -9.890625 L 8.5625 0 L 6.53125 0 L 1.546875 -9.390625 L 1.546875 -0.28125 L 2.34375 -0.28125 L 2.34375 0 L 0.359375 0 L 0.359375 -0.28125 L 1.15625 -0.28125 L 1.15625 -9.890625 L 0.359375 -9.890625 L 0.359375 -10.15625 L 4.375 -10.15625 L 8.171875 -2.875 L 8.171875 -9.890625 L 7.375 -9.890625 L 7.375 -10.15625 L 9.359375 -10.15625 L 9.359375 -9.890625 Z M 8.5625 -9.890625 "/></g></g></g><g fill="#333333" fill-opacity="1"><g transform="translate(181.795504, 20.447779)"><g><path d="M 6.265625 -0.28125 L 5.21875 -3.40625 L 2.34375 -3.40625 L 1.21875 -0.28125 L 2.3125 -0.28125 L 2.3125 0 L 0.09375 0 L 0.09375 -0.28125 L 0.765625 -0.28125 L 4.46875 -10.25 L 5.65625 -10.25 L 9.3125 -0.28125 L 9.984375 -0.28125 L 9.984375 0 L 5.234375 0 L 5.234375 -0.28125 Z M 3.828125 -7.53125 L 2.46875 -3.734375 L 5.09375 -3.734375 Z M 3.828125 -7.53125 "/></g></g></g><g fill="#333333" fill-opacity="1"><g transform="translate(191.86969, 20.447779)"><g><path d="M 7.953125 -10.15625 L 11.828125 -10.15625 L 11.828125 -9.890625 L 11.03125 -9.890625 L 11.03125 -0.28125 L 11.828125 -0.28125 L 11.828125 0 L 7.40625 0 L 7.40625 -0.28125 L 8.203125 -0.28125 L 8.203125 -9.34375 L 8.140625 -9.34375 L 5.96875 0 L 4.15625 0 L 1.59375 -9.390625 L 1.53125 -9.390625 L 1.53125 -0.28125 L 2.34375 -0.28125 L 2.34375 0 L 0.359375 0 L 0.359375 -0.28125 L 1.15625 -0.28125 L 1.15625 -9.890625 L 0.359375 -9.890625 L 0.359375 -10.15625 L 4.28125 -10.15625 L 6.21875 -2.6875 Z M 7.953125 -10.15625 "/></g></g></g></svg>