<svg xmlns="http://www.w3.org/2000/svg" xmlns:xlink="http://www.w3.org/1999/xlink" width="200" zoomAndPan="magnify" viewBox="0 0 150 30.000001" height="40" preserveAspectRatio="xMidYMid meet" version="1.0"><defs><g/><clipPath id="23b63f6ad5"><path d="M 2.417969 0 L 147.578125 0 L 147.578125 29.03125 L 2.417969 29.03125 Z M 2.417969 0 " clip-rule="nonzero"/></clipPath><radialGradient gradientTransform="matrix(1, 0, 0, 1, 2.419352, 0.00000193548)" gradientUnits="userSpaceOnUse" r="74.017747" cx="72.580648" id="5581ef2705" cy="14.51613" fx="72.580648" fy="14.51613"><stop stop-opacity="1" stop-color="rgb(99.868774%, 97.822571%, 80.444336%)" offset="0"/><stop stop-opacity="1" stop-color="rgb(99.673462%, 97.558594%, 80.514526%)" offset="0.0078125"/><stop stop-opacity="1" stop-color="rgb(99.543762%, 97.381592%, 80.560303%)" offset="0.0117188"/><stop stop-opacity="1" stop-color="rgb(99.414062%, 97.206116%, 80.606079%)" offset="0.015625"/><stop stop-opacity="1" stop-color="rgb(99.282837%, 97.03064%, 80.651855%)" offset="0.0195312"/><stop stop-opacity="1" stop-color="rgb(99.153137%, 96.853638%, 80.699158%)" offset="0.0234375"/><stop stop-opacity="1" stop-color="rgb(99.023438%, 96.678162%, 80.744934%)" offset="0.0273438"/><stop stop-opacity="1" stop-color="rgb(98.893738%, 96.50116%, 80.79071%)" offset="0.03125"/><stop stop-opacity="1" stop-color="rgb(98.762512%, 96.325684%, 80.836487%)" offset="0.0351562"/><stop stop-opacity="1" stop-color="rgb(98.632812%, 96.148682%, 80.883789%)" offset="0.0390625"/><stop stop-opacity="1" stop-color="rgb(98.503113%, 95.973206%, 80.929565%)" offset="0.0429688"/><stop stop-opacity="1" stop-color="rgb(98.373413%, 95.796204%, 80.975342%)" offset="0.046875"/><stop stop-opacity="1" stop-color="rgb(98.242188%, 95.620728%, 81.021118%)" offset="0.0507812"/><stop stop-opacity="1" stop-color="rgb(98.112488%, 95.443726%, 81.066895%)" offset="0.0546875"/><stop stop-opacity="1" stop-color="rgb(97.982788%, 95.26825%, 81.114197%)" offset="0.0585938"/><stop stop-opacity="1" stop-color="rgb(97.853088%, 95.091248%, 81.159973%)" offset="0.0625"/><stop stop-opacity="1" stop-color="rgb(97.721863%, 94.915771%, 81.20575%)" offset="0.0664062"/><stop stop-opacity="1" stop-color="rgb(97.592163%, 94.740295%, 81.251526%)" offset="0.0703125"/><stop stop-opacity="1" stop-color="rgb(97.462463%, 94.563293%, 81.297302%)" offset="0.0742188"/><stop stop-opacity="1" stop-color="rgb(97.332764%, 94.387817%, 81.344604%)" offset="0.078125"/><stop stop-opacity="1" stop-color="rgb(97.201538%, 94.210815%, 81.390381%)" offset="0.0820312"/><stop stop-opacity="1" stop-color="rgb(97.071838%, 94.035339%, 81.436157%)" offset="0.0859375"/><stop stop-opacity="1" stop-color="rgb(96.942139%, 93.858337%, 81.481934%)" offset="0.0898438"/><stop stop-opacity="1" stop-color="rgb(96.812439%, 93.682861%, 81.52771%)" offset="0.09375"/><stop stop-opacity="1" stop-color="rgb(96.681213%, 93.505859%, 81.575012%)" offset="0.0976562"/><stop stop-opacity="1" stop-color="rgb(96.551514%, 93.330383%, 81.620789%)" offset="0.101562"/><stop stop-opacity="1" stop-color="rgb(96.421814%, 93.153381%, 81.666565%)" offset="0.105469"/><stop stop-opacity="1" stop-color="rgb(96.292114%, 92.977905%, 81.712341%)" offset="0.109375"/><stop stop-opacity="1" stop-color="rgb(96.160889%, 92.802429%, 81.758118%)" offset="0.113281"/><stop stop-opacity="1" stop-color="rgb(96.031189%, 92.625427%, 81.80542%)" offset="0.117188"/><stop stop-opacity="1" stop-color="rgb(95.901489%, 92.449951%, 81.851196%)" offset="0.121094"/><stop stop-opacity="1" stop-color="rgb(95.77179%, 92.272949%, 81.896973%)" offset="0.125"/><stop stop-opacity="1" stop-color="rgb(95.640564%, 92.097473%, 81.942749%)" offset="0.128906"/><stop stop-opacity="1" stop-color="rgb(95.510864%, 91.920471%, 81.990051%)" offset="0.132812"/><stop stop-opacity="1" stop-color="rgb(95.381165%, 91.744995%, 82.035828%)" offset="0.136719"/><stop stop-opacity="1" stop-color="rgb(95.251465%, 91.567993%, 82.081604%)" offset="0.140625"/><stop stop-opacity="1" stop-color="rgb(95.120239%, 91.392517%, 82.12738%)" offset="0.144531"/><stop stop-opacity="1" stop-color="rgb(94.99054%, 91.215515%, 82.173157%)" offset="0.148438"/><stop stop-opacity="1" stop-color="rgb(94.86084%, 91.040039%, 82.220459%)" offset="0.152344"/><stop stop-opacity="1" stop-color="rgb(94.73114%, 90.864563%, 82.266235%)" offset="0.15625"/><stop stop-opacity="1" stop-color="rgb(94.599915%, 90.687561%, 82.312012%)" offset="0.160156"/><stop stop-opacity="1" stop-color="rgb(94.470215%, 90.512085%, 82.357788%)" offset="0.164062"/><stop stop-opacity="1" stop-color="rgb(94.340515%, 90.335083%, 82.403564%)" offset="0.167969"/><stop stop-opacity="1" stop-color="rgb(94.210815%, 90.159607%, 82.450867%)" offset="0.171875"/><stop stop-opacity="1" stop-color="rgb(94.07959%, 89.982605%, 82.496643%)" offset="0.175781"/><stop stop-opacity="1" stop-color="rgb(93.94989%, 89.807129%, 82.542419%)" offset="0.179688"/><stop stop-opacity="1" stop-color="rgb(93.82019%, 89.630127%, 82.588196%)" offset="0.183594"/><stop stop-opacity="1" stop-color="rgb(93.690491%, 89.454651%, 82.633972%)" offset="0.1875"/><stop stop-opacity="1" stop-color="rgb(93.559265%, 89.277649%, 82.681274%)" offset="0.191406"/><stop stop-opacity="1" stop-color="rgb(93.429565%, 89.102173%, 82.727051%)" offset="0.195312"/><stop stop-opacity="1" stop-color="rgb(93.299866%, 88.926697%, 82.772827%)" offset="0.199219"/><stop stop-opacity="1" stop-color="rgb(93.170166%, 88.749695%, 82.818604%)" offset="0.203125"/><stop stop-opacity="1" stop-color="rgb(93.03894%, 88.574219%, 82.86438%)" offset="0.207031"/><stop stop-opacity="1" stop-color="rgb(92.909241%, 88.397217%, 82.911682%)" offset="0.210938"/><stop stop-opacity="1" stop-color="rgb(92.779541%, 88.221741%, 82.957458%)" offset="0.214844"/><stop stop-opacity="1" stop-color="rgb(92.649841%, 88.044739%, 83.003235%)" offset="0.21875"/><stop stop-opacity="1" stop-color="rgb(92.518616%, 87.869263%, 83.049011%)" offset="0.222656"/><stop stop-opacity="1" stop-color="rgb(92.388916%, 87.692261%, 83.096313%)" offset="0.226562"/><stop stop-opacity="1" stop-color="rgb(92.259216%, 87.516785%, 83.14209%)" offset="0.230469"/><stop stop-opacity="1" stop-color="rgb(92.129517%, 87.339783%, 83.187866%)" offset="0.234375"/><stop stop-opacity="1" stop-color="rgb(91.998291%, 87.164307%, 83.233643%)" offset="0.238281"/><stop stop-opacity="1" stop-color="rgb(91.868591%, 86.988831%, 83.279419%)" offset="0.242188"/><stop stop-opacity="1" stop-color="rgb(91.738892%, 86.811829%, 83.326721%)" offset="0.246094"/><stop stop-opacity="1" stop-color="rgb(91.609192%, 86.636353%, 83.372498%)" offset="0.25"/><stop stop-opacity="1" stop-color="rgb(91.413879%, 86.37085%, 83.441162%)" offset="0.253906"/><stop stop-opacity="1" stop-color="rgb(91.152954%, 86.018372%, 83.532715%)" offset="0.261719"/><stop stop-opacity="1" stop-color="rgb(90.893555%, 85.665894%, 83.625793%)" offset="0.269531"/><stop stop-opacity="1" stop-color="rgb(90.632629%, 85.313416%, 83.717346%)" offset="0.277344"/><stop stop-opacity="1" stop-color="rgb(90.37323%, 84.962463%, 83.810425%)" offset="0.285156"/><stop stop-opacity="1" stop-color="rgb(90.112305%, 84.609985%, 83.901978%)" offset="0.292969"/><stop stop-opacity="1" stop-color="rgb(89.852905%, 84.257507%, 83.99353%)" offset="0.300781"/><stop stop-opacity="1" stop-color="rgb(89.59198%, 83.905029%, 84.086609%)" offset="0.308594"/><stop stop-opacity="1" stop-color="rgb(89.332581%, 83.552551%, 84.178162%)" offset="0.316406"/><stop stop-opacity="1" stop-color="rgb(89.071655%, 83.200073%, 84.27124%)" offset="0.324219"/><stop stop-opacity="1" stop-color="rgb(88.812256%, 82.847595%, 84.362793%)" offset="0.332031"/><stop stop-opacity="1" stop-color="rgb(88.551331%, 82.495117%, 84.455872%)" offset="0.339844"/><stop stop-opacity="1" stop-color="rgb(88.291931%, 82.142639%, 84.547424%)" offset="0.347656"/><stop stop-opacity="1" stop-color="rgb(88.031006%, 81.790161%, 84.638977%)" offset="0.355469"/><stop stop-opacity="1" stop-color="rgb(87.771606%, 81.437683%, 84.732056%)" offset="0.363281"/><stop stop-opacity="1" stop-color="rgb(87.510681%, 81.086731%, 84.823608%)" offset="0.371094"/><stop stop-opacity="1" stop-color="rgb(87.251282%, 80.734253%, 84.916687%)" offset="0.378906"/><stop stop-opacity="1" stop-color="rgb(86.990356%, 80.381775%, 85.00824%)" offset="0.386719"/><stop stop-opacity="1" stop-color="rgb(86.730957%, 80.029297%, 85.099792%)" offset="0.394531"/><stop stop-opacity="1" stop-color="rgb(86.470032%, 79.676819%, 85.192871%)" offset="0.402344"/><stop stop-opacity="1" stop-color="rgb(86.210632%, 79.324341%, 85.284424%)" offset="0.410156"/><stop stop-opacity="1" stop-color="rgb(85.949707%, 78.971863%, 85.377502%)" offset="0.417969"/><stop stop-opacity="1" stop-color="rgb(85.690308%, 78.619385%, 85.469055%)" offset="0.425781"/><stop stop-opacity="1" stop-color="rgb(85.429382%, 78.266907%, 85.562134%)" offset="0.433594"/><stop stop-opacity="1" stop-color="rgb(85.169983%, 77.914429%, 85.653687%)" offset="0.441406"/><stop stop-opacity="1" stop-color="rgb(84.909058%, 77.561951%, 85.745239%)" offset="0.449219"/><stop stop-opacity="1" stop-color="rgb(84.649658%, 77.210999%, 85.838318%)" offset="0.457031"/><stop stop-opacity="1" stop-color="rgb(84.388733%, 76.858521%, 85.929871%)" offset="0.464844"/><stop stop-opacity="1" stop-color="rgb(84.129333%, 76.506042%, 86.022949%)" offset="0.472656"/><stop stop-opacity="1" stop-color="rgb(83.869934%, 76.153564%, 86.114502%)" offset="0.480469"/><stop stop-opacity="1" stop-color="rgb(83.609009%, 75.801086%, 86.206055%)" offset="0.488281"/><stop stop-opacity="1" stop-color="rgb(83.349609%, 75.448608%, 86.299133%)" offset="0.496094"/><stop stop-opacity="1" stop-color="rgb(83.154297%, 75.184631%, 86.367798%)" offset="0.503906"/><stop stop-opacity="1" stop-color="rgb(83.023071%, 75.009155%, 86.413574%)" offset="0.507812"/><stop stop-opacity="1" stop-color="rgb(82.893372%, 74.832153%, 86.460876%)" offset="0.511719"/><stop stop-opacity="1" stop-color="rgb(82.763672%, 74.656677%, 86.506653%)" offset="0.515625"/><stop stop-opacity="1" stop-color="rgb(82.633972%, 74.479675%, 86.552429%)" offset="0.519531"/><stop stop-opacity="1" stop-color="rgb(82.502747%, 74.304199%, 86.598206%)" offset="0.523438"/><stop stop-opacity="1" stop-color="rgb(82.373047%, 74.127197%, 86.645508%)" offset="0.527344"/><stop stop-opacity="1" stop-color="rgb(82.243347%, 73.951721%, 86.691284%)" offset="0.53125"/><stop stop-opacity="1" stop-color="rgb(82.113647%, 73.774719%, 86.737061%)" offset="0.535156"/><stop stop-opacity="1" stop-color="rgb(81.982422%, 73.599243%, 86.782837%)" offset="0.539062"/><stop stop-opacity="1" stop-color="rgb(81.852722%, 73.422241%, 86.828613%)" offset="0.542969"/><stop stop-opacity="1" stop-color="rgb(81.723022%, 73.246765%, 86.875916%)" offset="0.546875"/><stop stop-opacity="1" stop-color="rgb(81.593323%, 73.069763%, 86.921692%)" offset="0.550781"/><stop stop-opacity="1" stop-color="rgb(81.462097%, 72.894287%, 86.967468%)" offset="0.554688"/><stop stop-opacity="1" stop-color="rgb(81.332397%, 72.718811%, 87.013245%)" offset="0.558594"/><stop stop-opacity="1" stop-color="rgb(81.202698%, 72.541809%, 87.059021%)" offset="0.5625"/><stop stop-opacity="1" stop-color="rgb(81.072998%, 72.366333%, 87.106323%)" offset="0.566406"/><stop stop-opacity="1" stop-color="rgb(80.941772%, 72.189331%, 87.1521%)" offset="0.570312"/><stop stop-opacity="1" stop-color="rgb(80.812073%, 72.013855%, 87.197876%)" offset="0.574219"/><stop stop-opacity="1" stop-color="rgb(80.682373%, 71.836853%, 87.243652%)" offset="0.578125"/><stop stop-opacity="1" stop-color="rgb(80.552673%, 71.661377%, 87.289429%)" offset="0.582031"/><stop stop-opacity="1" stop-color="rgb(80.421448%, 71.484375%, 87.336731%)" offset="0.585938"/><stop stop-opacity="1" stop-color="rgb(80.291748%, 71.308899%, 87.382507%)" offset="0.589844"/><stop stop-opacity="1" stop-color="rgb(80.162048%, 71.131897%, 87.428284%)" offset="0.59375"/><stop stop-opacity="1" stop-color="rgb(80.032349%, 70.956421%, 87.47406%)" offset="0.597656"/><stop stop-opacity="1" stop-color="rgb(79.901123%, 70.780945%, 87.519836%)" offset="0.601562"/><stop stop-opacity="1" stop-color="rgb(79.771423%, 70.603943%, 87.567139%)" offset="0.605469"/><stop stop-opacity="1" stop-color="rgb(79.641724%, 70.428467%, 87.612915%)" offset="0.609375"/><stop stop-opacity="1" stop-color="rgb(79.512024%, 70.251465%, 87.658691%)" offset="0.613281"/><stop stop-opacity="1" stop-color="rgb(79.380798%, 70.075989%, 87.704468%)" offset="0.617188"/><stop stop-opacity="1" stop-color="rgb(79.251099%, 69.898987%, 87.75177%)" offset="0.621094"/><stop stop-opacity="1" stop-color="rgb(79.121399%, 69.723511%, 87.797546%)" offset="0.625"/><stop stop-opacity="1" stop-color="rgb(78.926086%, 69.458008%, 87.866211%)" offset="0.628906"/><stop stop-opacity="1" stop-color="rgb(78.666687%, 69.107056%, 87.957764%)" offset="0.636719"/><stop stop-opacity="1" stop-color="rgb(78.405762%, 68.754578%, 88.050842%)" offset="0.644531"/><stop stop-opacity="1" stop-color="rgb(78.146362%, 68.4021%, 88.142395%)" offset="0.652344"/><stop stop-opacity="1" stop-color="rgb(77.885437%, 68.049622%, 88.235474%)" offset="0.660156"/><stop stop-opacity="1" stop-color="rgb(77.626038%, 67.697144%, 88.327026%)" offset="0.667969"/><stop stop-opacity="1" stop-color="rgb(77.365112%, 67.344666%, 88.418579%)" offset="0.675781"/><stop stop-opacity="1" stop-color="rgb(77.105713%, 66.992188%, 88.511658%)" offset="0.683594"/><stop stop-opacity="1" stop-color="rgb(76.844788%, 66.639709%, 88.60321%)" offset="0.691406"/><stop stop-opacity="1" stop-color="rgb(76.585388%, 66.287231%, 88.696289%)" offset="0.699219"/><stop stop-opacity="1" stop-color="rgb(76.324463%, 65.934753%, 88.787842%)" offset="0.707031"/><stop stop-opacity="1" stop-color="rgb(76.065063%, 65.582275%, 88.88092%)" offset="0.714844"/><stop stop-opacity="1" stop-color="rgb(75.804138%, 65.231323%, 88.972473%)" offset="0.722656"/><stop stop-opacity="1" stop-color="rgb(75.544739%, 64.878845%, 89.064026%)" offset="0.730469"/><stop stop-opacity="1" stop-color="rgb(75.283813%, 64.526367%, 89.157104%)" offset="0.738281"/><stop stop-opacity="1" stop-color="rgb(75.024414%, 64.173889%, 89.248657%)" offset="0.746094"/><stop stop-opacity="1" stop-color="rgb(74.829102%, 63.909912%, 89.318848%)" offset="0.753906"/><stop stop-opacity="1" stop-color="rgb(74.697876%, 63.73291%, 89.364624%)" offset="0.757812"/><stop stop-opacity="1" stop-color="rgb(74.568176%, 63.557434%, 89.4104%)" offset="0.761719"/><stop stop-opacity="1" stop-color="rgb(74.438477%, 63.380432%, 89.456177%)" offset="0.765625"/><stop stop-opacity="1" stop-color="rgb(74.308777%, 63.204956%, 89.501953%)" offset="0.769531"/><stop stop-opacity="1" stop-color="rgb(74.177551%, 63.027954%, 89.549255%)" offset="0.773438"/><stop stop-opacity="1" stop-color="rgb(74.047852%, 62.852478%, 89.595032%)" offset="0.777344"/><stop stop-opacity="1" stop-color="rgb(73.918152%, 62.677002%, 89.640808%)" offset="0.78125"/><stop stop-opacity="1" stop-color="rgb(73.788452%, 62.5%, 89.686584%)" offset="0.785156"/><stop stop-opacity="1" stop-color="rgb(73.657227%, 62.324524%, 89.732361%)" offset="0.789062"/><stop stop-opacity="1" stop-color="rgb(73.527527%, 62.147522%, 89.779663%)" offset="0.792969"/><stop stop-opacity="1" stop-color="rgb(73.397827%, 61.972046%, 89.825439%)" offset="0.796875"/><stop stop-opacity="1" stop-color="rgb(73.268127%, 61.795044%, 89.871216%)" offset="0.800781"/><stop stop-opacity="1" stop-color="rgb(73.136902%, 61.619568%, 89.916992%)" offset="0.804688"/><stop stop-opacity="1" stop-color="rgb(73.007202%, 61.442566%, 89.964294%)" offset="0.808594"/><stop stop-opacity="1" stop-color="rgb(72.877502%, 61.26709%, 90.010071%)" offset="0.8125"/><stop stop-opacity="1" stop-color="rgb(72.68219%, 61.003113%, 90.078735%)" offset="0.816406"/><stop stop-opacity="1" stop-color="rgb(72.422791%, 60.650635%, 90.170288%)" offset="0.824219"/><stop stop-opacity="1" stop-color="rgb(72.161865%, 60.298157%, 90.263367%)" offset="0.832031"/><stop stop-opacity="1" stop-color="rgb(71.902466%, 59.945679%, 90.354919%)" offset="0.839844"/><stop stop-opacity="1" stop-color="rgb(71.641541%, 59.593201%, 90.447998%)" offset="0.847656"/><stop stop-opacity="1" stop-color="rgb(71.382141%, 59.240723%, 90.539551%)" offset="0.855469"/><stop stop-opacity="1" stop-color="rgb(71.121216%, 58.888245%, 90.631104%)" offset="0.863281"/><stop stop-opacity="1" stop-color="rgb(70.861816%, 58.535767%, 90.724182%)" offset="0.871094"/><stop stop-opacity="1" stop-color="rgb(70.666504%, 58.27179%, 90.792847%)" offset="0.878906"/><stop stop-opacity="1" stop-color="rgb(70.535278%, 58.096313%, 90.838623%)" offset="0.882812"/><stop stop-opacity="1" stop-color="rgb(70.405579%, 57.919312%, 90.885925%)" offset="0.886719"/><stop stop-opacity="1" stop-color="rgb(70.275879%, 57.743835%, 90.931702%)" offset="0.890625"/><stop stop-opacity="1" stop-color="rgb(70.146179%, 57.566833%, 90.977478%)" offset="0.894531"/><stop stop-opacity="1" stop-color="rgb(70.014954%, 57.391357%, 91.023254%)" offset="0.898438"/><stop stop-opacity="1" stop-color="rgb(69.885254%, 57.214355%, 91.069031%)" offset="0.902344"/><stop stop-opacity="1" stop-color="rgb(69.755554%, 57.038879%, 91.116333%)" offset="0.90625"/><stop stop-opacity="1" stop-color="rgb(69.560242%, 56.774902%, 91.184998%)" offset="0.910156"/><stop stop-opacity="1" stop-color="rgb(69.300842%, 56.422424%, 91.27655%)" offset="0.917969"/><stop stop-opacity="1" stop-color="rgb(69.039917%, 56.069946%, 91.369629%)" offset="0.925781"/><stop stop-opacity="1" stop-color="rgb(68.780518%, 55.717468%, 91.461182%)" offset="0.933594"/><stop stop-opacity="1" stop-color="rgb(68.585205%, 55.453491%, 91.531372%)" offset="0.941406"/><stop stop-opacity="1" stop-color="rgb(68.453979%, 55.276489%, 91.577148%)" offset="0.945312"/><stop stop-opacity="1" stop-color="rgb(68.32428%, 55.101013%, 91.622925%)" offset="0.949219"/><stop stop-opacity="1" stop-color="rgb(68.19458%, 54.925537%, 91.668701%)" offset="0.953125"/><stop stop-opacity="1" stop-color="rgb(67.999268%, 54.660034%, 91.737366%)" offset="0.957031"/><stop stop-opacity="1" stop-color="rgb(67.739868%, 54.307556%, 91.830444%)" offset="0.964844"/><stop stop-opacity="1" stop-color="rgb(67.544556%, 54.043579%, 91.899109%)" offset="0.972656"/><stop stop-opacity="1" stop-color="rgb(67.414856%, 53.868103%, 91.944885%)" offset="0.976562"/><stop stop-opacity="1" stop-color="rgb(67.219543%, 53.6026%, 92.015076%)" offset="0.980469"/><stop stop-opacity="1" stop-color="rgb(67.024231%, 53.338623%, 92.08374%)" offset="0.988281"/><stop stop-opacity="1" stop-color="rgb(66.828918%, 53.074646%, 92.152405%)" offset="0.992188"/><stop stop-opacity="1" stop-color="rgb(66.699219%, 52.89917%, 92.199707%)" offset="1"/></radialGradient></defs><g clip-path="url(#23b63f6ad5)"><path fill="#ffffff" d="M 2.417969 0 L 147.582031 0 L 147.582031 29.03125 L 2.417969 29.03125 Z M 2.417969 0 " fill-opacity="1" fill-rule="nonzero"/><path fill="url(#5581ef2705)" d="M 2.417969 0 L 2.417969 29.03125 L 147.582031 29.03125 L 147.582031 0 Z M 2.417969 0 " fill-rule="nonzero"/></g><g fill="#61b0b2" fill-opacity="0.4"><g transform="translate(10.738552, 21.79983)"><g><path d="M 2.5625 -10.15625 L 7.265625 -10.15625 L 7.265625 -9.890625 L 6.46875 -9.890625 L 6.46875 -3.609375 C 6.46875 -2.304688 6.171875 -1.359375 5.578125 -0.765625 C 4.992188 -0.171875 4.113281 0.125 2.9375 0.125 C 2.144531 0.125 1.519531 -0.0195312 1.0625 -0.3125 C 0.601562 -0.613281 0.375 -1.035156 0.375 -1.578125 C 0.375 -1.992188 0.488281 -2.320312 0.71875 -2.5625 C 0.957031 -2.800781 1.273438 -2.921875 1.671875 -2.921875 C 2.078125 -2.921875 2.378906 -2.816406 2.578125 -2.609375 C 2.773438 -2.410156 2.875 -2.164062 2.875 -1.875 C 2.875 -1.59375 2.820312 -1.304688 2.71875 -1.015625 L 2.140625 -1.015625 C 2.054688 -0.867188 2.015625 -0.726562 2.015625 -0.59375 C 2.015625 -0.46875 2.078125 -0.359375 2.203125 -0.265625 C 2.335938 -0.171875 2.515625 -0.125 2.734375 -0.125 C 3.117188 -0.125 3.363281 -0.273438 3.46875 -0.578125 C 3.582031 -0.890625 3.640625 -1.550781 3.640625 -2.5625 L 3.640625 -9.890625 L 2.5625 -9.890625 Z M 2.5625 -10.15625 "/></g></g></g><g fill="#61b0b2" fill-opacity="0.4"><g transform="translate(18.243388, 21.79983)"><g><path d="M 0.3125 -10.15625 L 7.859375 -10.15625 L 8 -7.28125 L 7.734375 -7.28125 C 7.328125 -8.257812 6.898438 -8.929688 6.453125 -9.296875 C 6.015625 -9.660156 5.363281 -9.84375 4.5 -9.84375 L 3.984375 -9.84375 L 3.984375 -5.359375 L 4.484375 -5.359375 C 4.941406 -5.359375 5.320312 -5.53125 5.625 -5.875 C 5.9375 -6.21875 6.15625 -6.679688 6.28125 -7.265625 L 6.5 -7.265625 L 6.5 -2.96875 L 6.25 -2.96875 C 6.082031 -3.6875 5.847656 -4.203125 5.546875 -4.515625 C 5.253906 -4.828125 4.851562 -4.984375 4.34375 -4.984375 L 3.984375 -4.984375 L 3.984375 -0.3125 L 4.546875 -0.3125 C 5.429688 -0.3125 6.1875 -0.578125 6.8125 -1.109375 C 7.4375 -1.648438 7.863281 -2.335938 8.09375 -3.171875 L 8.390625 -3.171875 L 8.28125 0 L 0.3125 0 L 0.3125 -0.3125 L 1.15625 -0.3125 L 1.15625 -9.84375 L 0.3125 -9.84375 Z M 0.3125 -10.15625 "/></g></g></g><g fill="#61b0b2" fill-opacity="0.4"><g transform="translate(27.301449, 21.79983)"><g><path d="M 8.5625 -9.890625 L 8.5625 0 L 6.53125 0 L 1.546875 -9.390625 L 1.546875 -0.28125 L 2.34375 -0.28125 L 2.34375 0 L 0.359375 0 L 0.359375 -0.28125 L 1.15625 -0.28125 L 1.15625 -9.890625 L 0.359375 -9.890625 L 0.359375 -10.15625 L 4.375 -10.15625 L 8.171875 -2.875 L 8.171875 -9.890625 L 7.375 -9.890625 L 7.375 -10.15625 L 9.359375 -10.15625 L 9.359375 -9.890625 Z M 8.5625 -9.890625 "/></g></g></g><g fill="#61b0b2" fill-opacity="0.4"><g transform="translate(37.027251, 21.79983)"><g><path d="M 0.359375 -10.15625 L 4.796875 -10.15625 L 4.796875 -9.890625 L 3.984375 -9.890625 L 3.984375 -0.28125 L 4.796875 -0.28125 L 4.796875 0 L 0.359375 0 L 0.359375 -0.28125 L 1.15625 -0.28125 L 1.15625 -9.890625 L 0.359375 -9.890625 Z M 0.359375 -10.15625 "/></g></g></g><g fill="#61b0b2" fill-opacity="0.4"><g transform="translate(42.18047, 21.79983)"><g><path d="M 4.71875 -0.15625 C 5.195312 -0.15625 5.625 -0.285156 6 -0.546875 C 6.375 -0.804688 6.5625 -1.203125 6.5625 -1.734375 C 6.5625 -2.265625 6.359375 -2.671875 5.953125 -2.953125 C 5.554688 -3.234375 4.988281 -3.472656 4.25 -3.671875 C 3.507812 -3.878906 2.972656 -4.0625 2.640625 -4.21875 C 2.304688 -4.375 1.988281 -4.578125 1.6875 -4.828125 C 1.082031 -5.335938 0.78125 -6.117188 0.78125 -7.171875 C 0.78125 -8.035156 1.085938 -8.773438 1.703125 -9.390625 C 2.316406 -10.015625 3.15625 -10.328125 4.21875 -10.328125 C 4.738281 -10.328125 5.273438 -10.25 5.828125 -10.09375 C 6.378906 -9.945312 6.722656 -9.875 6.859375 -9.875 C 6.992188 -9.875 7.117188 -9.96875 7.234375 -10.15625 L 7.390625 -10.15625 L 7.484375 -7.234375 L 7.265625 -7.234375 C 6.796875 -8.066406 6.304688 -8.738281 5.796875 -9.25 C 5.285156 -9.757812 4.734375 -10.015625 4.140625 -10.015625 C 3.546875 -10.015625 3.082031 -9.875 2.75 -9.59375 C 2.425781 -9.320312 2.265625 -8.957031 2.265625 -8.5 C 2.265625 -8.039062 2.457031 -7.6875 2.84375 -7.4375 C 3.238281 -7.1875 3.722656 -6.984375 4.296875 -6.828125 C 4.867188 -6.679688 5.242188 -6.578125 5.421875 -6.515625 C 5.597656 -6.460938 5.816406 -6.382812 6.078125 -6.28125 C 6.347656 -6.175781 6.566406 -6.066406 6.734375 -5.953125 C 6.910156 -5.847656 7.09375 -5.707031 7.28125 -5.53125 C 7.46875 -5.363281 7.613281 -5.179688 7.71875 -4.984375 C 7.976562 -4.515625 8.109375 -3.960938 8.109375 -3.328125 C 8.109375 -2.273438 7.78125 -1.429688 7.125 -0.796875 C 6.476562 -0.171875 5.625 0.140625 4.5625 0.140625 C 4.007812 0.140625 3.375 0.0664062 2.65625 -0.078125 C 1.945312 -0.222656 1.554688 -0.296875 1.484375 -0.296875 C 1.347656 -0.296875 1.21875 -0.148438 1.09375 0.140625 L 0.890625 0.140625 L 0.734375 -3.3125 L 0.984375 -3.3125 C 1.410156 -2.46875 1.953125 -1.726562 2.609375 -1.09375 C 3.273438 -0.46875 3.976562 -0.15625 4.71875 -0.15625 Z M 4.71875 -0.15625 "/></g></g></g><g fill="#302c2c" fill-opacity="1"><g transform="translate(10.097024, 21.158302)"><g><path d="M 2.5625 -10.15625 L 7.265625 -10.15625 L 7.265625 -9.890625 L 6.46875 -9.890625 L 6.46875 -3.609375 C 6.46875 -2.304688 6.171875 -1.359375 5.578125 -0.765625 C 4.992188 -0.171875 4.113281 0.125 2.9375 0.125 C 2.144531 0.125 1.519531 -0.0195312 1.0625 -0.3125 C 0.601562 -0.613281 0.375 -1.035156 0.375 -1.578125 C 0.375 -1.992188 0.488281 -2.320312 0.71875 -2.5625 C 0.957031 -2.800781 1.273438 -2.921875 1.671875 -2.921875 C 2.078125 -2.921875 2.378906 -2.816406 2.578125 -2.609375 C 2.773438 -2.410156 2.875 -2.164062 2.875 -1.875 C 2.875 -1.59375 2.820312 -1.304688 2.71875 -1.015625 L 2.140625 -1.015625 C 2.054688 -0.867188 2.015625 -0.726562 2.015625 -0.59375 C 2.015625 -0.46875 2.078125 -0.359375 2.203125 -0.265625 C 2.335938 -0.171875 2.515625 -0.125 2.734375 -0.125 C 3.117188 -0.125 3.363281 -0.273438 3.46875 -0.578125 C 3.582031 -0.890625 3.640625 -1.550781 3.640625 -2.5625 L 3.640625 -9.890625 L 2.5625 -9.890625 Z M 2.5625 -10.15625 "/></g></g></g><g fill="#302c2c" fill-opacity="1"><g transform="translate(17.60186, 21.158302)"><g><path d="M 0.3125 -10.15625 L 7.859375 -10.15625 L 8 -7.28125 L 7.734375 -7.28125 C 7.328125 -8.257812 6.898438 -8.929688 6.453125 -9.296875 C 6.015625 -9.660156 5.363281 -9.84375 4.5 -9.84375 L 3.984375 -9.84375 L 3.984375 -5.359375 L 4.484375 -5.359375 C 4.941406 -5.359375 5.320312 -5.53125 5.625 -5.875 C 5.9375 -6.21875 6.15625 -6.679688 6.28125 -7.265625 L 6.5 -7.265625 L 6.5 -2.96875 L 6.25 -2.96875 C 6.082031 -3.6875 5.847656 -4.203125 5.546875 -4.515625 C 5.253906 -4.828125 4.851562 -4.984375 4.34375 -4.984375 L 3.984375 -4.984375 L 3.984375 -0.3125 L 4.546875 -0.3125 C 5.429688 -0.3125 6.1875 -0.578125 6.8125 -1.109375 C 7.4375 -1.648438 7.863281 -2.335938 8.09375 -3.171875 L 8.390625 -3.171875 L 8.28125 0 L 0.3125 0 L 0.3125 -0.3125 L 1.15625 -0.3125 L 1.15625 -9.84375 L 0.3125 -9.84375 Z M 0.3125 -10.15625 "/></g></g></g><g fill="#302c2c" fill-opacity="1"><g transform="translate(26.659921, 21.158302)"><g><path d="M 8.5625 -9.890625 L 8.5625 0 L 6.53125 0 L 1.546875 -9.390625 L 1.546875 -0.28125 L 2.34375 -0.28125 L 2.34375 0 L 0.359375 0 L 0.359375 -0.28125 L 1.15625 -0.28125 L 1.15625 -9.890625 L 0.359375 -9.890625 L 0.359375 -10.15625 L 4.375 -10.15625 L 8.171875 -2.875 L 8.171875 -9.890625 L 7.375 -9.890625 L 7.375 -10.15625 L 9.359375 -10.15625 L 9.359375 -9.890625 Z M 8.5625 -9.890625 "/></g></g></g><g fill="#302c2c" fill-opacity="1"><g transform="translate(36.385723, 21.158302)"><g><path d="M 0.359375 -10.15625 L 4.796875 -10.15625 L 4.796875 -9.890625 L 3.984375 -9.890625 L 3.984375 -0.28125 L 4.796875 -0.28125 L 4.796875 0 L 0.359375 0 L 0.359375 -0.28125 L 1.15625 -0.28125 L 1.15625 -9.890625 L 0.359375 -9.890625 Z M 0.359375 -10.15625 "/></g></g></g><g fill="#302c2c" fill-opacity="1"><g transform="translate(41.538942, 21.158302)"><g><path d="M 4.71875 -0.15625 C 5.195312 -0.15625 5.625 -0.285156 6 -0.546875 C 6.375 -0.804688 6.5625 -1.203125 6.5625 -1.734375 C 6.5625 -2.265625 6.359375 -2.671875 5.953125 -2.953125 C 5.554688 -3.234375 4.988281 -3.472656 4.25 -3.671875 C 3.507812 -3.878906 2.972656 -4.0625 2.640625 -4.21875 C 2.304688 -4.375 1.988281 -4.578125 1.6875 -4.828125 C 1.082031 -5.335938 0.78125 -6.117188 0.78125 -7.171875 C 0.78125 -8.035156 1.085938 -8.773438 1.703125 -9.390625 C 2.316406 -10.015625 3.15625 -10.328125 4.21875 -10.328125 C 4.738281 -10.328125 5.273438 -10.25 5.828125 -10.09375 C 6.378906 -9.945312 6.722656 -9.875 6.859375 -9.875 C 6.992188 -9.875 7.117188 -9.96875 7.234375 -10.15625 L 7.390625 -10.15625 L 7.484375 -7.234375 L 7.265625 -7.234375 C 6.796875 -8.066406 6.304688 -8.738281 5.796875 -9.25 C 5.285156 -9.757812 4.734375 -10.015625 4.140625 -10.015625 C 3.546875 -10.015625 3.082031 -9.875 2.75 -9.59375 C 2.425781 -9.320312 2.265625 -8.957031 2.265625 -8.5 C 2.265625 -8.039062 2.457031 -7.6875 2.84375 -7.4375 C 3.238281 -7.1875 3.722656 -6.984375 4.296875 -6.828125 C 4.867188 -6.679688 5.242188 -6.578125 5.421875 -6.515625 C 5.597656 -6.460938 5.816406 -6.382812 6.078125 -6.28125 C 6.347656 -6.175781 6.566406 -6.066406 6.734375 -5.953125 C 6.910156 -5.847656 7.09375 -5.707031 7.28125 -5.53125 C 7.46875 -5.363281 7.613281 -5.179688 7.71875 -4.984375 C 7.976562 -4.515625 8.109375 -3.960938 8.109375 -3.328125 C 8.109375 -2.273438 7.78125 -1.429688 7.125 -0.796875 C 6.476562 -0.171875 5.625 0.140625 4.5625 0.140625 C 4.007812 0.140625 3.375 0.0664062 2.65625 -0.078125 C 1.945312 -0.222656 1.554688 -0.296875 1.484375 -0.296875 C 1.347656 -0.296875 1.21875 -0.148438 1.09375 0.140625 L 0.890625 0.140625 L 0.734375 -3.3125 L 0.984375 -3.3125 C 1.410156 -2.46875 1.953125 -1.726562 2.609375 -1.09375 C 3.273438 -0.46875 3.976562 -0.15625 4.71875 -0.15625 Z M 4.71875 -0.15625 "/></g></g></g><g fill="#61b0b2" fill-opacity="0.4"><g transform="translate(55.562082, 21.79983)"><g><path d="M 0.359375 -10.15625 L 4.796875 -10.15625 L 4.796875 -9.890625 L 3.984375 -9.890625 L 3.984375 -5.296875 L 4.109375 -5.328125 L 8.203125 -9.890625 L 7.046875 -9.890625 L 7.046875 -10.15625 L 9.59375 -10.15625 L 9.59375 -9.890625 L 8.71875 -9.890625 L 6.234375 -7.09375 L 9.71875 -0.28125 L 10.5 -0.28125 L 10.5 0 L 5.828125 0 L 5.828125 -0.28125 L 6.515625 -0.28125 L 4.125 -4.90625 L 3.984375 -4.875 L 3.984375 -0.28125 L 4.796875 -0.28125 L 4.796875 0 L 0.359375 0 L 0.359375 -0.28125 L 1.15625 -0.28125 L 1.15625 -9.890625 L 0.359375 -9.890625 Z M 0.359375 -10.15625 "/></g></g></g><g fill="#61b0b2" fill-opacity="0.4"><g transform="translate(66.216915, 21.79983)"><g><path d="M 0.3125 -10.15625 L 7.859375 -10.15625 L 8 -7.28125 L 7.734375 -7.28125 C 7.328125 -8.257812 6.898438 -8.929688 6.453125 -9.296875 C 6.015625 -9.660156 5.363281 -9.84375 4.5 -9.84375 L 3.984375 -9.84375 L 3.984375 -5.359375 L 4.484375 -5.359375 C 4.941406 -5.359375 5.320312 -5.53125 5.625 -5.875 C 5.9375 -6.21875 6.15625 -6.679688 6.28125 -7.265625 L 6.5 -7.265625 L 6.5 -2.96875 L 6.25 -2.96875 C 6.082031 -3.6875 5.847656 -4.203125 5.546875 -4.515625 C 5.253906 -4.828125 4.851562 -4.984375 4.34375 -4.984375 L 3.984375 -4.984375 L 3.984375 -0.3125 L 4.546875 -0.3125 C 5.429688 -0.3125 6.1875 -0.578125 6.8125 -1.109375 C 7.4375 -1.648438 7.863281 -2.335938 8.09375 -3.171875 L 8.390625 -3.171875 L 8.28125 0 L 0.3125 0 L 0.3125 -0.3125 L 1.15625 -0.3125 L 1.15625 -9.84375 L 0.3125 -9.84375 Z M 0.3125 -10.15625 "/></g></g></g><g fill="#61b0b2" fill-opacity="0.4"><g transform="translate(75.274976, 21.79983)"><g><path d="M 4.765625 -5.140625 L 3.984375 -5.140625 L 3.984375 -0.28125 L 4.9375 -0.28125 L 4.9375 0 L 0.21875 0 L 0.21875 -0.28125 L 1.15625 -0.28125 L 1.15625 -9.890625 L 0.21875 -9.890625 L 0.21875 -10.15625 L 4.59375 -10.15625 C 5.851562 -10.15625 6.75 -10.085938 7.28125 -9.953125 C 7.8125 -9.828125 8.179688 -9.675781 8.390625 -9.5 C 8.859375 -9.113281 9.09375 -8.507812 9.09375 -7.6875 C 9.09375 -6.863281 8.890625 -6.273438 8.484375 -5.921875 C 8.078125 -5.578125 7.457031 -5.367188 6.625 -5.296875 L 6.625 -5.25 C 7.40625 -5.144531 7.945312 -4.910156 8.25 -4.546875 C 8.5625 -4.191406 8.71875 -3.597656 8.71875 -2.765625 L 8.71875 -1.984375 C 8.71875 -1.484375 8.742188 -1.144531 8.796875 -0.96875 C 8.859375 -0.800781 8.972656 -0.71875 9.140625 -0.71875 C 9.316406 -0.71875 9.457031 -0.796875 9.5625 -0.953125 C 9.664062 -1.109375 9.757812 -1.441406 9.84375 -1.953125 L 10.09375 -1.9375 C 9.976562 -1.113281 9.785156 -0.5625 9.515625 -0.28125 C 9.253906 0 8.726562 0.140625 7.9375 0.140625 C 7.144531 0.140625 6.582031 -0.0390625 6.25 -0.40625 C 5.914062 -0.78125 5.75 -1.484375 5.75 -2.515625 L 5.75 -3.578125 C 5.75 -4.117188 5.675781 -4.515625 5.53125 -4.765625 C 5.394531 -5.015625 5.140625 -5.140625 4.765625 -5.140625 Z M 3.984375 -9.890625 L 3.984375 -5.421875 L 4.453125 -5.421875 C 5.003906 -5.421875 5.410156 -5.585938 5.671875 -5.921875 C 5.941406 -6.265625 6.078125 -6.816406 6.078125 -7.578125 L 6.078125 -8 C 6.078125 -8.757812 5.945312 -9.265625 5.6875 -9.515625 C 5.4375 -9.765625 5.03125 -9.890625 4.46875 -9.890625 Z M 3.984375 -9.890625 "/></g></g></g><g fill="#61b0b2" fill-opacity="0.4"><g transform="translate(85.668519, 21.79983)"><g><path d="M 2.5625 -10.15625 L 7.265625 -10.15625 L 7.265625 -9.890625 L 6.46875 -9.890625 L 6.46875 -3.609375 C 6.46875 -2.304688 6.171875 -1.359375 5.578125 -0.765625 C 4.992188 -0.171875 4.113281 0.125 2.9375 0.125 C 2.144531 0.125 1.519531 -0.0195312 1.0625 -0.3125 C 0.601562 -0.613281 0.375 -1.035156 0.375 -1.578125 C 0.375 -1.992188 0.488281 -2.320312 0.71875 -2.5625 C 0.957031 -2.800781 1.273438 -2.921875 1.671875 -2.921875 C 2.078125 -2.921875 2.378906 -2.816406 2.578125 -2.609375 C 2.773438 -2.410156 2.875 -2.164062 2.875 -1.875 C 2.875 -1.59375 2.820312 -1.304688 2.71875 -1.015625 L 2.140625 -1.015625 C 2.054688 -0.867188 2.015625 -0.726562 2.015625 -0.59375 C 2.015625 -0.46875 2.078125 -0.359375 2.203125 -0.265625 C 2.335938 -0.171875 2.515625 -0.125 2.734375 -0.125 C 3.117188 -0.125 3.363281 -0.273438 3.46875 -0.578125 C 3.582031 -0.890625 3.640625 -1.550781 3.640625 -2.5625 L 3.640625 -9.890625 L 2.5625 -9.890625 Z M 2.5625 -10.15625 "/></g></g></g><g fill="#61b0b2" fill-opacity="0.4"><g transform="translate(93.173355, 21.79983)"><g><path d="M 6.265625 -0.28125 L 5.21875 -3.40625 L 2.34375 -3.40625 L 1.21875 -0.28125 L 2.3125 -0.28125 L 2.3125 0 L 0.09375 0 L 0.09375 -0.28125 L 0.765625 -0.28125 L 4.46875 -10.25 L 5.65625 -10.25 L 9.3125 -0.28125 L 9.984375 -0.28125 L 9.984375 0 L 5.234375 0 L 5.234375 -0.28125 Z M 3.828125 -7.53125 L 2.46875 -3.734375 L 5.09375 -3.734375 Z M 3.828125 -7.53125 "/></g></g></g><g fill="#61b0b2" fill-opacity="0.4"><g transform="translate(103.247541, 21.79983)"><g><path d="M 4.71875 -0.15625 C 5.195312 -0.15625 5.625 -0.285156 6 -0.546875 C 6.375 -0.804688 6.5625 -1.203125 6.5625 -1.734375 C 6.5625 -2.265625 6.359375 -2.671875 5.953125 -2.953125 C 5.554688 -3.234375 4.988281 -3.472656 4.25 -3.671875 C 3.507812 -3.878906 2.972656 -4.0625 2.640625 -4.21875 C 2.304688 -4.375 1.988281 -4.578125 1.6875 -4.828125 C 1.082031 -5.335938 0.78125 -6.117188 0.78125 -7.171875 C 0.78125 -8.035156 1.085938 -8.773438 1.703125 -9.390625 C 2.316406 -10.015625 3.15625 -10.328125 4.21875 -10.328125 C 4.738281 -10.328125 5.273438 -10.25 5.828125 -10.09375 C 6.378906 -9.945312 6.722656 -9.875 6.859375 -9.875 C 6.992188 -9.875 7.117188 -9.96875 7.234375 -10.15625 L 7.390625 -10.15625 L 7.484375 -7.234375 L 7.265625 -7.234375 C 6.796875 -8.066406 6.304688 -8.738281 5.796875 -9.25 C 5.285156 -9.757812 4.734375 -10.015625 4.140625 -10.015625 C 3.546875 -10.015625 3.082031 -9.875 2.75 -9.59375 C 2.425781 -9.320312 2.265625 -8.957031 2.265625 -8.5 C 2.265625 -8.039062 2.457031 -7.6875 2.84375 -7.4375 C 3.238281 -7.1875 3.722656 -6.984375 4.296875 -6.828125 C 4.867188 -6.679688 5.242188 -6.578125 5.421875 -6.515625 C 5.597656 -6.460938 5.816406 -6.382812 6.078125 -6.28125 C 6.347656 -6.175781 6.566406 -6.066406 6.734375 -5.953125 C 6.910156 -5.847656 7.09375 -5.707031 7.28125 -5.53125 C 7.46875 -5.363281 7.613281 -5.179688 7.71875 -4.984375 C 7.976562 -4.515625 8.109375 -3.960938 8.109375 -3.328125 C 8.109375 -2.273438 7.78125 -1.429688 7.125 -0.796875 C 6.476562 -0.171875 5.625 0.140625 4.5625 0.140625 C 4.007812 0.140625 3.375 0.0664062 2.65625 -0.078125 C 1.945312 -0.222656 1.554688 -0.296875 1.484375 -0.296875 C 1.347656 -0.296875 1.21875 -0.148438 1.09375 0.140625 L 0.890625 0.140625 L 0.734375 -3.3125 L 0.984375 -3.3125 C 1.410156 -2.46875 1.953125 -1.726562 2.609375 -1.09375 C 3.273438 -0.46875 3.976562 -0.15625 4.71875 -0.15625 Z M 4.71875 -0.15625 "/></g></g></g><g fill="#61b0b2" fill-opacity="0.4"><g transform="translate(111.957207, 21.79983)"><g><path d="M 6.265625 -0.28125 L 5.21875 -3.40625 L 2.34375 -3.40625 L 1.21875 -0.28125 L 2.3125 -0.28125 L 2.3125 0 L 0.09375 0 L 0.09375 -0.28125 L 0.765625 -0.28125 L 4.46875 -10.25 L 5.65625 -10.25 L 9.3125 -0.28125 L 9.984375 -0.28125 L 9.984375 0 L 5.234375 0 L 5.234375 -0.28125 Z M 3.828125 -7.53125 L 2.46875 -3.734375 L 5.09375 -3.734375 Z M 3.828125 -7.53125 "/></g></g></g><g fill="#61b0b2" fill-opacity="0.4"><g transform="translate(122.031393, 21.79983)"><g><path d="M 7.953125 -10.15625 L 11.828125 -10.15625 L 11.828125 -9.890625 L 11.03125 -9.890625 L 11.03125 -0.28125 L 11.828125 -0.28125 L 11.828125 0 L 7.40625 0 L 7.40625 -0.28125 L 8.203125 -0.28125 L 8.203125 -9.34375 L 8.140625 -9.34375 L 5.96875 0 L 4.15625 0 L 1.59375 -9.390625 L 1.53125 -9.390625 L 1.53125 -0.28125 L 2.34375 -0.28125 L 2.34375 0 L 0.359375 0 L 0.359375 -0.28125 L 1.15625 -0.28125 L 1.15625 -9.890625 L 0.359375 -9.890625 L 0.359375 -10.15625 L 4.28125 -10.15625 L 6.21875 -2.6875 Z M 7.953125 -10.15625 "/></g></g></g><g fill="#61b0b2" fill-opacity="0.4"><g transform="translate(134.224932, 21.79983)"><g><path d="M 6.265625 -0.28125 L 5.21875 -3.40625 L 2.34375 -3.40625 L 1.21875 -0.28125 L 2.3125 -0.28125 L 2.3125 0 L 0.09375 0 L 0.09375 -0.28125 L 0.765625 -0.28125 L 4.46875 -10.25 L 5.65625 -10.25 L 9.3125 -0.28125 L 9.984375 -0.28125 L 9.984375 0 L 5.234375 0 L 5.234375 -0.28125 Z M 3.828125 -7.53125 L 2.46875 -3.734375 L 5.09375 -3.734375 Z M 3.828125 -7.53125 "/></g></g></g><g fill="#302c2c" fill-opacity="1"><g transform="translate(54.920555, 21.158302)"><g><path d="M 0.359375 -10.15625 L 4.796875 -10.15625 L 4.796875 -9.890625 L 3.984375 -9.890625 L 3.984375 -5.296875 L 4.109375 -5.328125 L 8.203125 -9.890625 L 7.046875 -9.890625 L 7.046875 -10.15625 L 9.59375 -10.15625 L 9.59375 -9.890625 L 8.71875 -9.890625 L 6.234375 -7.09375 L 9.71875 -0.28125 L 10.5 -0.28125 L 10.5 0 L 5.828125 0 L 5.828125 -0.28125 L 6.515625 -0.28125 L 4.125 -4.90625 L 3.984375 -4.875 L 3.984375 -0.28125 L 4.796875 -0.28125 L 4.796875 0 L 0.359375 0 L 0.359375 -0.28125 L 1.15625 -0.28125 L 1.15625 -9.890625 L 0.359375 -9.890625 Z M 0.359375 -10.15625 "/></g></g></g><g fill="#302c2c" fill-opacity="1"><g transform="translate(65.575388, 21.158302)"><g><path d="M 0.3125 -10.15625 L 7.859375 -10.15625 L 8 -7.28125 L 7.734375 -7.28125 C 7.328125 -8.257812 6.898438 -8.929688 6.453125 -9.296875 C 6.015625 -9.660156 5.363281 -9.84375 4.5 -9.84375 L 3.984375 -9.84375 L 3.984375 -5.359375 L 4.484375 -5.359375 C 4.941406 -5.359375 5.320312 -5.53125 5.625 -5.875 C 5.9375 -6.21875 6.15625 -6.679688 6.28125 -7.265625 L 6.5 -7.265625 L 6.5 -2.96875 L 6.25 -2.96875 C 6.082031 -3.6875 5.847656 -4.203125 5.546875 -4.515625 C 5.253906 -4.828125 4.851562 -4.984375 4.34375 -4.984375 L 3.984375 -4.984375 L 3.984375 -0.3125 L 4.546875 -0.3125 C 5.429688 -0.3125 6.1875 -0.578125 6.8125 -1.109375 C 7.4375 -1.648438 7.863281 -2.335938 8.09375 -3.171875 L 8.390625 -3.171875 L 8.28125 0 L 0.3125 0 L 0.3125 -0.3125 L 1.15625 -0.3125 L 1.15625 -9.84375 L 0.3125 -9.84375 Z M 0.3125 -10.15625 "/></g></g></g><g fill="#302c2c" fill-opacity="1"><g transform="translate(74.633449, 21.158302)"><g><path d="M 4.765625 -5.140625 L 3.984375 -5.140625 L 3.984375 -0.28125 L 4.9375 -0.28125 L 4.9375 0 L 0.21875 0 L 0.21875 -0.28125 L 1.15625 -0.28125 L 1.15625 -9.890625 L 0.21875 -9.890625 L 0.21875 -10.15625 L 4.59375 -10.15625 C 5.851562 -10.15625 6.75 -10.085938 7.28125 -9.953125 C 7.8125 -9.828125 8.179688 -9.675781 8.390625 -9.5 C 8.859375 -9.113281 9.09375 -8.507812 9.09375 -7.6875 C 9.09375 -6.863281 8.890625 -6.273438 8.484375 -5.921875 C 8.078125 -5.578125 7.457031 -5.367188 6.625 -5.296875 L 6.625 -5.25 C 7.40625 -5.144531 7.945312 -4.910156 8.25 -4.546875 C 8.5625 -4.191406 8.71875 -3.597656 8.71875 -2.765625 L 8.71875 -1.984375 C 8.71875 -1.484375 8.742188 -1.144531 8.796875 -0.96875 C 8.859375 -0.800781 8.972656 -0.71875 9.140625 -0.71875 C 9.316406 -0.71875 9.457031 -0.796875 9.5625 -0.953125 C 9.664062 -1.109375 9.757812 -1.441406 9.84375 -1.953125 L 10.09375 -1.9375 C 9.976562 -1.113281 9.785156 -0.5625 9.515625 -0.28125 C 9.253906 0 8.726562 0.140625 7.9375 0.140625 C 7.144531 0.140625 6.582031 -0.0390625 6.25 -0.40625 C 5.914062 -0.78125 5.75 -1.484375 5.75 -2.515625 L 5.75 -3.578125 C 5.75 -4.117188 5.675781 -4.515625 5.53125 -4.765625 C 5.394531 -5.015625 5.140625 -5.140625 4.765625 -5.140625 Z M 3.984375 -9.890625 L 3.984375 -5.421875 L 4.453125 -5.421875 C 5.003906 -5.421875 5.410156 -5.585938 5.671875 -5.921875 C 5.941406 -6.265625 6.078125 -6.816406 6.078125 -7.578125 L 6.078125 -8 C 6.078125 -8.757812 5.945312 -9.265625 5.6875 -9.515625 C 5.4375 -9.765625 5.03125 -9.890625 4.46875 -9.890625 Z M 3.984375 -9.890625 "/></g></g></g><g fill="#302c2c" fill-opacity="1"><g transform="translate(85.026992, 21.158302)"><g><path d="M 2.5625 -10.15625 L 7.265625 -10.15625 L 7.265625 -9.890625 L 6.46875 -9.890625 L 6.46875 -3.609375 C 6.46875 -2.304688 6.171875 -1.359375 5.578125 -0.765625 C 4.992188 -0.171875 4.113281 0.125 2.9375 0.125 C 2.144531 0.125 1.519531 -0.0195312 1.0625 -0.3125 C 0.601562 -0.613281 0.375 -1.035156 0.375 -1.578125 C 0.375 -1.992188 0.488281 -2.320312 0.71875 -2.5625 C 0.957031 -2.800781 1.273438 -2.921875 1.671875 -2.921875 C 2.078125 -2.921875 2.378906 -2.816406 2.578125 -2.609375 C 2.773438 -2.410156 2.875 -2.164062 2.875 -1.875 C 2.875 -1.59375 2.820312 -1.304688 2.71875 -1.015625 L 2.140625 -1.015625 C 2.054688 -0.867188 2.015625 -0.726562 2.015625 -0.59375 C 2.015625 -0.46875 2.078125 -0.359375 2.203125 -0.265625 C 2.335938 -0.171875 2.515625 -0.125 2.734375 -0.125 C 3.117188 -0.125 3.363281 -0.273438 3.46875 -0.578125 C 3.582031 -0.890625 3.640625 -1.550781 3.640625 -2.5625 L 3.640625 -9.890625 L 2.5625 -9.890625 Z M 2.5625 -10.15625 "/></g></g></g><g fill="#302c2c" fill-opacity="1"><g transform="translate(92.531828, 21.158302)"><g><path d="M 6.265625 -0.28125 L 5.21875 -3.40625 L 2.34375 -3.40625 L 1.21875 -0.28125 L 2.3125 -0.28125 L 2.3125 0 L 0.09375 0 L 0.09375 -0.28125 L 0.765625 -0.28125 L 4.46875 -10.25 L 5.65625 -10.25 L 9.3125 -0.28125 L 9.984375 -0.28125 L 9.984375 0 L 5.234375 0 L 5.234375 -0.28125 Z M 3.828125 -7.53125 L 2.46875 -3.734375 L 5.09375 -3.734375 Z M 3.828125 -7.53125 "/></g></g></g><g fill="#302c2c" fill-opacity="1"><g transform="translate(102.606014, 21.158302)"><g><path d="M 4.71875 -0.15625 C 5.195312 -0.15625 5.625 -0.285156 6 -0.546875 C 6.375 -0.804688 6.5625 -1.203125 6.5625 -1.734375 C 6.5625 -2.265625 6.359375 -2.671875 5.953125 -2.953125 C 5.554688 -3.234375 4.988281 -3.472656 4.25 -3.671875 C 3.507812 -3.878906 2.972656 -4.0625 2.640625 -4.21875 C 2.304688 -4.375 1.988281 -4.578125 1.6875 -4.828125 C 1.082031 -5.335938 0.78125 -6.117188 0.78125 -7.171875 C 0.78125 -8.035156 1.085938 -8.773438 1.703125 -9.390625 C 2.316406 -10.015625 3.15625 -10.328125 4.21875 -10.328125 C 4.738281 -10.328125 5.273438 -10.25 5.828125 -10.09375 C 6.378906 -9.945312 6.722656 -9.875 6.859375 -9.875 C 6.992188 -9.875 7.117188 -9.96875 7.234375 -10.15625 L 7.390625 -10.15625 L 7.484375 -7.234375 L 7.265625 -7.234375 C 6.796875 -8.066406 6.304688 -8.738281 5.796875 -9.25 C 5.285156 -9.757812 4.734375 -10.015625 4.140625 -10.015625 C 3.546875 -10.015625 3.082031 -9.875 2.75 -9.59375 C 2.425781 -9.320312 2.265625 -8.957031 2.265625 -8.5 C 2.265625 -8.039062 2.457031 -7.6875 2.84375 -7.4375 C 3.238281 -7.1875 3.722656 -6.984375 4.296875 -6.828125 C 4.867188 -6.679688 5.242188 -6.578125 5.421875 -6.515625 C 5.597656 -6.460938 5.816406 -6.382812 6.078125 -6.28125 C 6.347656 -6.175781 6.566406 -6.066406 6.734375 -5.953125 C 6.910156 -5.847656 7.09375 -5.707031 7.28125 -5.53125 C 7.46875 -5.363281 7.613281 -5.179688 7.71875 -4.984375 C 7.976562 -4.515625 8.109375 -3.960938 8.109375 -3.328125 C 8.109375 -2.273438 7.78125 -1.429688 7.125 -0.796875 C 6.476562 -0.171875 5.625 0.140625 4.5625 0.140625 C 4.007812 0.140625 3.375 0.0664062 2.65625 -0.078125 C 1.945312 -0.222656 1.554688 -0.296875 1.484375 -0.296875 C 1.347656 -0.296875 1.21875 -0.148438 1.09375 0.140625 L 0.890625 0.140625 L 0.734375 -3.3125 L 0.984375 -3.3125 C 1.410156 -2.46875 1.953125 -1.726562 2.609375 -1.09375 C 3.273438 -0.46875 3.976562 -0.15625 4.71875 -0.15625 Z M 4.71875 -0.15625 "/></g></g></g><g fill="#302c2c" fill-opacity="1"><g transform="translate(111.31568, 21.158302)"><g><path d="M 6.265625 -0.28125 L 5.21875 -3.40625 L 2.34375 -3.40625 L 1.21875 -0.28125 L 2.3125 -0.28125 L 2.3125 0 L 0.09375 0 L 0.09375 -0.28125 L 0.765625 -0.28125 L 4.46875 -10.25 L 5.65625 -10.25 L 9.3125 -0.28125 L 9.984375 -0.28125 L 9.984375 0 L 5.234375 0 L 5.234375 -0.28125 Z M 3.828125 -7.53125 L 2.46875 -3.734375 L 5.09375 -3.734375 Z M 3.828125 -7.53125 "/></g></g></g><g fill="#302c2c" fill-opacity="1"><g transform="translate(121.389866, 21.158302)"><g><path d="M 7.953125 -10.15625 L 11.828125 -10.15625 L 11.828125 -9.890625 L 11.03125 -9.890625 L 11.03125 -0.28125 L 11.828125 -0.28125 L 11.828125 0 L 7.40625 0 L 7.40625 -0.28125 L 8.203125 -0.28125 L 8.203125 -9.34375 L 8.140625 -9.34375 L 5.96875 0 L 4.15625 0 L 1.59375 -9.390625 L 1.53125 -9.390625 L 1.53125 -0.28125 L 2.34375 -0.28125 L 2.34375 0 L 0.359375 0 L 0.359375 -0.28125 L 1.15625 -0.28125 L 1.15625 -9.890625 L 0.359375 -9.890625 L 0.359375 -10.15625 L 4.28125 -10.15625 L 6.21875 -2.6875 Z M 7.953125 -10.15625 "/></g></g></g><g fill="#302c2c" fill-opacity="1"><g transform="translate(133.583406, 21.158302)"><g><path d="M 6.265625 -0.28125 L 5.21875 -3.40625 L 2.34375 -3.40625 L 1.21875 -0.28125 L 2.3125 -0.28125 L 2.3125 0 L 0.09375 0 L 0.09375 -0.28125 L 0.765625 -0.28125 L 4.46875 -10.25 L 5.65625 -10.25 L 9.3125 -0.28125 L 9.984375 -0.28125 L 9.984375 0 L 5.234375 0 L 5.234375 -0.28125 Z M 3.828125 -7.53125 L 2.46875 -3.734375 L 5.09375 -3.734375 Z M 3.828125 -7.53125 "/></g></g></g></svg>