<svg xmlns="http://www.w3.org/2000/svg" xmlns:xlink="http://www.w3.org/1999/xlink" width="170" zoomAndPan="magnify" viewBox="0 0 127.5 30.000001" height="40" preserveAspectRatio="xMidYMid meet" version="1.0"><defs><g/><clipPath id="cbcab7dbb7"><path d="M 1.816406 0 L 125.203125 0 L 125.203125 29.03125 L 1.816406 29.03125 Z M 1.816406 0 " clip-rule="nonzero"/></clipPath><radialGradient gradientTransform="matrix(1, 0, 0, 1, 1.814514, 0.00000193548)" gradientUnits="userSpaceOnUse" r="63.378147" cx="61.69355" id="4ac47ae42f" cy="14.51613" fx="61.69355" fy="14.51613"><stop stop-opacity="1" stop-color="rgb(99.815369%, 97.932434%, 80.444336%)" offset="0"/><stop stop-opacity="1" stop-color="rgb(99.539185%, 97.831726%, 80.514526%)" offset="0.0078125"/><stop stop-opacity="1" stop-color="rgb(99.354553%, 97.764587%, 80.560303%)" offset="0.0117188"/><stop stop-opacity="1" stop-color="rgb(99.171448%, 97.697449%, 80.606079%)" offset="0.015625"/><stop stop-opacity="1" stop-color="rgb(98.986816%, 97.63031%, 80.651855%)" offset="0.0195312"/><stop stop-opacity="1" stop-color="rgb(98.802185%, 97.563171%, 80.699158%)" offset="0.0234375"/><stop stop-opacity="1" stop-color="rgb(98.61908%, 97.496033%, 80.744934%)" offset="0.0273438"/><stop stop-opacity="1" stop-color="rgb(98.434448%, 97.427368%, 80.79071%)" offset="0.03125"/><stop stop-opacity="1" stop-color="rgb(98.251343%, 97.360229%, 80.836487%)" offset="0.0351562"/><stop stop-opacity="1" stop-color="rgb(98.066711%, 97.293091%, 80.883789%)" offset="0.0390625"/><stop stop-opacity="1" stop-color="rgb(97.883606%, 97.225952%, 80.929565%)" offset="0.0429688"/><stop stop-opacity="1" stop-color="rgb(97.698975%, 97.158813%, 80.975342%)" offset="0.046875"/><stop stop-opacity="1" stop-color="rgb(97.514343%, 97.091675%, 81.021118%)" offset="0.0507812"/><stop stop-opacity="1" stop-color="rgb(97.331238%, 97.024536%, 81.066895%)" offset="0.0546875"/><stop stop-opacity="1" stop-color="rgb(97.146606%, 96.957397%, 81.114197%)" offset="0.0585938"/><stop stop-opacity="1" stop-color="rgb(96.963501%, 96.890259%, 81.159973%)" offset="0.0625"/><stop stop-opacity="1" stop-color="rgb(96.77887%, 96.82312%, 81.20575%)" offset="0.0664062"/><stop stop-opacity="1" stop-color="rgb(96.595764%, 96.755981%, 81.251526%)" offset="0.0703125"/><stop stop-opacity="1" stop-color="rgb(96.411133%, 96.688843%, 81.297302%)" offset="0.0742188"/><stop stop-opacity="1" stop-color="rgb(96.226501%, 96.621704%, 81.344604%)" offset="0.078125"/><stop stop-opacity="1" stop-color="rgb(96.043396%, 96.554565%, 81.390381%)" offset="0.0820312"/><stop stop-opacity="1" stop-color="rgb(95.858765%, 96.487427%, 81.436157%)" offset="0.0859375"/><stop stop-opacity="1" stop-color="rgb(95.675659%, 96.420288%, 81.481934%)" offset="0.0898438"/><stop stop-opacity="1" stop-color="rgb(95.491028%, 96.353149%, 81.52771%)" offset="0.09375"/><stop stop-opacity="1" stop-color="rgb(95.307922%, 96.286011%, 81.575012%)" offset="0.0976562"/><stop stop-opacity="1" stop-color="rgb(95.123291%, 96.218872%, 81.620789%)" offset="0.101562"/><stop stop-opacity="1" stop-color="rgb(94.93866%, 96.151733%, 81.666565%)" offset="0.105469"/><stop stop-opacity="1" stop-color="rgb(94.755554%, 96.084595%, 81.712341%)" offset="0.109375"/><stop stop-opacity="1" stop-color="rgb(94.570923%, 96.017456%, 81.758118%)" offset="0.113281"/><stop stop-opacity="1" stop-color="rgb(94.387817%, 95.950317%, 81.80542%)" offset="0.117188"/><stop stop-opacity="1" stop-color="rgb(94.203186%, 95.883179%, 81.851196%)" offset="0.121094"/><stop stop-opacity="1" stop-color="rgb(94.018555%, 95.81604%, 81.896973%)" offset="0.125"/><stop stop-opacity="1" stop-color="rgb(93.835449%, 95.748901%, 81.942749%)" offset="0.128906"/><stop stop-opacity="1" stop-color="rgb(93.650818%, 95.681763%, 81.990051%)" offset="0.132812"/><stop stop-opacity="1" stop-color="rgb(93.467712%, 95.614624%, 82.035828%)" offset="0.136719"/><stop stop-opacity="1" stop-color="rgb(93.283081%, 95.547485%, 82.081604%)" offset="0.140625"/><stop stop-opacity="1" stop-color="rgb(93.099976%, 95.480347%, 82.12738%)" offset="0.144531"/><stop stop-opacity="1" stop-color="rgb(92.915344%, 95.413208%, 82.173157%)" offset="0.148438"/><stop stop-opacity="1" stop-color="rgb(92.730713%, 95.346069%, 82.220459%)" offset="0.152344"/><stop stop-opacity="1" stop-color="rgb(92.547607%, 95.277405%, 82.266235%)" offset="0.15625"/><stop stop-opacity="1" stop-color="rgb(92.362976%, 95.210266%, 82.312012%)" offset="0.160156"/><stop stop-opacity="1" stop-color="rgb(92.179871%, 95.143127%, 82.357788%)" offset="0.164062"/><stop stop-opacity="1" stop-color="rgb(91.995239%, 95.075989%, 82.403564%)" offset="0.167969"/><stop stop-opacity="1" stop-color="rgb(91.812134%, 95.00885%, 82.450867%)" offset="0.171875"/><stop stop-opacity="1" stop-color="rgb(91.627502%, 94.941711%, 82.496643%)" offset="0.175781"/><stop stop-opacity="1" stop-color="rgb(91.442871%, 94.874573%, 82.542419%)" offset="0.179688"/><stop stop-opacity="1" stop-color="rgb(91.259766%, 94.807434%, 82.588196%)" offset="0.183594"/><stop stop-opacity="1" stop-color="rgb(91.075134%, 94.740295%, 82.633972%)" offset="0.1875"/><stop stop-opacity="1" stop-color="rgb(90.892029%, 94.673157%, 82.681274%)" offset="0.191406"/><stop stop-opacity="1" stop-color="rgb(90.707397%, 94.606018%, 82.727051%)" offset="0.195312"/><stop stop-opacity="1" stop-color="rgb(90.524292%, 94.538879%, 82.772827%)" offset="0.199219"/><stop stop-opacity="1" stop-color="rgb(90.339661%, 94.471741%, 82.818604%)" offset="0.203125"/><stop stop-opacity="1" stop-color="rgb(90.155029%, 94.404602%, 82.86438%)" offset="0.207031"/><stop stop-opacity="1" stop-color="rgb(89.971924%, 94.337463%, 82.911682%)" offset="0.210938"/><stop stop-opacity="1" stop-color="rgb(89.787292%, 94.270325%, 82.957458%)" offset="0.214844"/><stop stop-opacity="1" stop-color="rgb(89.604187%, 94.203186%, 83.003235%)" offset="0.21875"/><stop stop-opacity="1" stop-color="rgb(89.419556%, 94.136047%, 83.049011%)" offset="0.222656"/><stop stop-opacity="1" stop-color="rgb(89.23645%, 94.068909%, 83.096313%)" offset="0.226562"/><stop stop-opacity="1" stop-color="rgb(89.051819%, 94.00177%, 83.14209%)" offset="0.230469"/><stop stop-opacity="1" stop-color="rgb(88.867188%, 93.934631%, 83.187866%)" offset="0.234375"/><stop stop-opacity="1" stop-color="rgb(88.684082%, 93.867493%, 83.233643%)" offset="0.238281"/><stop stop-opacity="1" stop-color="rgb(88.499451%, 93.800354%, 83.279419%)" offset="0.242188"/><stop stop-opacity="1" stop-color="rgb(88.316345%, 93.733215%, 83.326721%)" offset="0.246094"/><stop stop-opacity="1" stop-color="rgb(88.131714%, 93.666077%, 83.372498%)" offset="0.25"/><stop stop-opacity="1" stop-color="rgb(87.85553%, 93.565369%, 83.441162%)" offset="0.253906"/><stop stop-opacity="1" stop-color="rgb(87.487793%, 93.431091%, 83.532715%)" offset="0.261719"/><stop stop-opacity="1" stop-color="rgb(87.120056%, 93.296814%, 83.625793%)" offset="0.269531"/><stop stop-opacity="1" stop-color="rgb(86.752319%, 93.161011%, 83.717346%)" offset="0.277344"/><stop stop-opacity="1" stop-color="rgb(86.383057%, 93.026733%, 83.810425%)" offset="0.285156"/><stop stop-opacity="1" stop-color="rgb(86.01532%, 92.892456%, 83.901978%)" offset="0.292969"/><stop stop-opacity="1" stop-color="rgb(85.647583%, 92.758179%, 83.99353%)" offset="0.300781"/><stop stop-opacity="1" stop-color="rgb(85.279846%, 92.623901%, 84.086609%)" offset="0.308594"/><stop stop-opacity="1" stop-color="rgb(84.912109%, 92.489624%, 84.178162%)" offset="0.316406"/><stop stop-opacity="1" stop-color="rgb(84.544373%, 92.355347%, 84.27124%)" offset="0.324219"/><stop stop-opacity="1" stop-color="rgb(84.176636%, 92.221069%, 84.362793%)" offset="0.332031"/><stop stop-opacity="1" stop-color="rgb(83.807373%, 92.086792%, 84.455872%)" offset="0.339844"/><stop stop-opacity="1" stop-color="rgb(83.439636%, 91.952515%, 84.547424%)" offset="0.347656"/><stop stop-opacity="1" stop-color="rgb(83.071899%, 91.818237%, 84.638977%)" offset="0.355469"/><stop stop-opacity="1" stop-color="rgb(82.704163%, 91.68396%, 84.732056%)" offset="0.363281"/><stop stop-opacity="1" stop-color="rgb(82.336426%, 91.549683%, 84.823608%)" offset="0.371094"/><stop stop-opacity="1" stop-color="rgb(81.968689%, 91.415405%, 84.916687%)" offset="0.378906"/><stop stop-opacity="1" stop-color="rgb(81.599426%, 91.281128%, 85.00824%)" offset="0.386719"/><stop stop-opacity="1" stop-color="rgb(81.231689%, 91.145325%, 85.099792%)" offset="0.394531"/><stop stop-opacity="1" stop-color="rgb(80.863953%, 91.011047%, 85.192871%)" offset="0.402344"/><stop stop-opacity="1" stop-color="rgb(80.496216%, 90.87677%, 85.284424%)" offset="0.410156"/><stop stop-opacity="1" stop-color="rgb(80.128479%, 90.742493%, 85.377502%)" offset="0.417969"/><stop stop-opacity="1" stop-color="rgb(79.760742%, 90.608215%, 85.469055%)" offset="0.425781"/><stop stop-opacity="1" stop-color="rgb(79.393005%, 90.473938%, 85.562134%)" offset="0.433594"/><stop stop-opacity="1" stop-color="rgb(79.023743%, 90.339661%, 85.653687%)" offset="0.441406"/><stop stop-opacity="1" stop-color="rgb(78.656006%, 90.205383%, 85.745239%)" offset="0.449219"/><stop stop-opacity="1" stop-color="rgb(78.288269%, 90.071106%, 85.838318%)" offset="0.457031"/><stop stop-opacity="1" stop-color="rgb(77.920532%, 89.936829%, 85.929871%)" offset="0.464844"/><stop stop-opacity="1" stop-color="rgb(77.552795%, 89.802551%, 86.022949%)" offset="0.472656"/><stop stop-opacity="1" stop-color="rgb(77.185059%, 89.668274%, 86.114502%)" offset="0.480469"/><stop stop-opacity="1" stop-color="rgb(76.817322%, 89.533997%, 86.206055%)" offset="0.488281"/><stop stop-opacity="1" stop-color="rgb(76.448059%, 89.399719%, 86.299133%)" offset="0.496094"/><stop stop-opacity="1" stop-color="rgb(76.173401%, 89.299011%, 86.367798%)" offset="0.503906"/><stop stop-opacity="1" stop-color="rgb(75.98877%, 89.231873%, 86.413574%)" offset="0.507812"/><stop stop-opacity="1" stop-color="rgb(75.804138%, 89.164734%, 86.460876%)" offset="0.511719"/><stop stop-opacity="1" stop-color="rgb(75.621033%, 89.097595%, 86.506653%)" offset="0.515625"/><stop stop-opacity="1" stop-color="rgb(75.436401%, 89.028931%, 86.552429%)" offset="0.519531"/><stop stop-opacity="1" stop-color="rgb(75.253296%, 88.961792%, 86.598206%)" offset="0.523438"/><stop stop-opacity="1" stop-color="rgb(75.068665%, 88.894653%, 86.645508%)" offset="0.527344"/><stop stop-opacity="1" stop-color="rgb(74.885559%, 88.827515%, 86.691284%)" offset="0.53125"/><stop stop-opacity="1" stop-color="rgb(74.700928%, 88.760376%, 86.737061%)" offset="0.535156"/><stop stop-opacity="1" stop-color="rgb(74.516296%, 88.693237%, 86.782837%)" offset="0.539062"/><stop stop-opacity="1" stop-color="rgb(74.333191%, 88.626099%, 86.828613%)" offset="0.542969"/><stop stop-opacity="1" stop-color="rgb(74.14856%, 88.55896%, 86.875916%)" offset="0.546875"/><stop stop-opacity="1" stop-color="rgb(73.965454%, 88.491821%, 86.921692%)" offset="0.550781"/><stop stop-opacity="1" stop-color="rgb(73.780823%, 88.424683%, 86.967468%)" offset="0.554688"/><stop stop-opacity="1" stop-color="rgb(73.597717%, 88.357544%, 87.013245%)" offset="0.558594"/><stop stop-opacity="1" stop-color="rgb(73.413086%, 88.290405%, 87.059021%)" offset="0.5625"/><stop stop-opacity="1" stop-color="rgb(73.228455%, 88.223267%, 87.106323%)" offset="0.566406"/><stop stop-opacity="1" stop-color="rgb(73.045349%, 88.156128%, 87.1521%)" offset="0.570312"/><stop stop-opacity="1" stop-color="rgb(72.860718%, 88.088989%, 87.197876%)" offset="0.574219"/><stop stop-opacity="1" stop-color="rgb(72.677612%, 88.021851%, 87.243652%)" offset="0.578125"/><stop stop-opacity="1" stop-color="rgb(72.492981%, 87.954712%, 87.289429%)" offset="0.582031"/><stop stop-opacity="1" stop-color="rgb(72.309875%, 87.887573%, 87.336731%)" offset="0.585938"/><stop stop-opacity="1" stop-color="rgb(72.125244%, 87.820435%, 87.382507%)" offset="0.589844"/><stop stop-opacity="1" stop-color="rgb(71.940613%, 87.753296%, 87.428284%)" offset="0.59375"/><stop stop-opacity="1" stop-color="rgb(71.757507%, 87.686157%, 87.47406%)" offset="0.597656"/><stop stop-opacity="1" stop-color="rgb(71.572876%, 87.619019%, 87.519836%)" offset="0.601562"/><stop stop-opacity="1" stop-color="rgb(71.389771%, 87.55188%, 87.567139%)" offset="0.605469"/><stop stop-opacity="1" stop-color="rgb(71.205139%, 87.484741%, 87.612915%)" offset="0.609375"/><stop stop-opacity="1" stop-color="rgb(71.020508%, 87.417603%, 87.658691%)" offset="0.613281"/><stop stop-opacity="1" stop-color="rgb(70.837402%, 87.350464%, 87.704468%)" offset="0.617188"/><stop stop-opacity="1" stop-color="rgb(70.652771%, 87.283325%, 87.75177%)" offset="0.621094"/><stop stop-opacity="1" stop-color="rgb(70.469666%, 87.216187%, 87.797546%)" offset="0.625"/><stop stop-opacity="1" stop-color="rgb(70.193481%, 87.115479%, 87.866211%)" offset="0.628906"/><stop stop-opacity="1" stop-color="rgb(69.825745%, 86.981201%, 87.957764%)" offset="0.636719"/><stop stop-opacity="1" stop-color="rgb(69.456482%, 86.845398%, 88.050842%)" offset="0.644531"/><stop stop-opacity="1" stop-color="rgb(69.088745%, 86.711121%, 88.142395%)" offset="0.652344"/><stop stop-opacity="1" stop-color="rgb(68.721008%, 86.576843%, 88.235474%)" offset="0.660156"/><stop stop-opacity="1" stop-color="rgb(68.353271%, 86.442566%, 88.327026%)" offset="0.667969"/><stop stop-opacity="1" stop-color="rgb(67.985535%, 86.308289%, 88.418579%)" offset="0.675781"/><stop stop-opacity="1" stop-color="rgb(67.617798%, 86.174011%, 88.511658%)" offset="0.683594"/><stop stop-opacity="1" stop-color="rgb(67.250061%, 86.039734%, 88.60321%)" offset="0.691406"/><stop stop-opacity="1" stop-color="rgb(66.880798%, 85.905457%, 88.696289%)" offset="0.699219"/><stop stop-opacity="1" stop-color="rgb(66.513062%, 85.771179%, 88.787842%)" offset="0.707031"/><stop stop-opacity="1" stop-color="rgb(66.145325%, 85.636902%, 88.88092%)" offset="0.714844"/><stop stop-opacity="1" stop-color="rgb(65.777588%, 85.502625%, 88.972473%)" offset="0.722656"/><stop stop-opacity="1" stop-color="rgb(65.409851%, 85.368347%, 89.064026%)" offset="0.730469"/><stop stop-opacity="1" stop-color="rgb(65.042114%, 85.23407%, 89.157104%)" offset="0.738281"/><stop stop-opacity="1" stop-color="rgb(64.672852%, 85.099792%, 89.248657%)" offset="0.746094"/><stop stop-opacity="1" stop-color="rgb(64.398193%, 84.999084%, 89.318848%)" offset="0.753906"/><stop stop-opacity="1" stop-color="rgb(64.213562%, 84.931946%, 89.364624%)" offset="0.757812"/><stop stop-opacity="1" stop-color="rgb(64.030457%, 84.864807%, 89.4104%)" offset="0.761719"/><stop stop-opacity="1" stop-color="rgb(63.845825%, 84.796143%, 89.456177%)" offset="0.765625"/><stop stop-opacity="1" stop-color="rgb(63.661194%, 84.729004%, 89.501953%)" offset="0.769531"/><stop stop-opacity="1" stop-color="rgb(63.478088%, 84.661865%, 89.549255%)" offset="0.773438"/><stop stop-opacity="1" stop-color="rgb(63.293457%, 84.594727%, 89.595032%)" offset="0.777344"/><stop stop-opacity="1" stop-color="rgb(63.110352%, 84.527588%, 89.640808%)" offset="0.78125"/><stop stop-opacity="1" stop-color="rgb(62.92572%, 84.460449%, 89.686584%)" offset="0.785156"/><stop stop-opacity="1" stop-color="rgb(62.742615%, 84.393311%, 89.732361%)" offset="0.789062"/><stop stop-opacity="1" stop-color="rgb(62.557983%, 84.326172%, 89.779663%)" offset="0.792969"/><stop stop-opacity="1" stop-color="rgb(62.373352%, 84.259033%, 89.825439%)" offset="0.796875"/><stop stop-opacity="1" stop-color="rgb(62.190247%, 84.191895%, 89.871216%)" offset="0.800781"/><stop stop-opacity="1" stop-color="rgb(62.005615%, 84.124756%, 89.916992%)" offset="0.804688"/><stop stop-opacity="1" stop-color="rgb(61.82251%, 84.057617%, 89.964294%)" offset="0.808594"/><stop stop-opacity="1" stop-color="rgb(61.637878%, 83.990479%, 90.010071%)" offset="0.8125"/><stop stop-opacity="1" stop-color="rgb(61.361694%, 83.889771%, 90.078735%)" offset="0.816406"/><stop stop-opacity="1" stop-color="rgb(60.993958%, 83.755493%, 90.170288%)" offset="0.824219"/><stop stop-opacity="1" stop-color="rgb(60.626221%, 83.621216%, 90.263367%)" offset="0.832031"/><stop stop-opacity="1" stop-color="rgb(60.258484%, 83.486938%, 90.354919%)" offset="0.839844"/><stop stop-opacity="1" stop-color="rgb(59.890747%, 83.352661%, 90.447998%)" offset="0.847656"/><stop stop-opacity="1" stop-color="rgb(59.521484%, 83.218384%, 90.539551%)" offset="0.855469"/><stop stop-opacity="1" stop-color="rgb(59.153748%, 83.084106%, 90.631104%)" offset="0.863281"/><stop stop-opacity="1" stop-color="rgb(58.786011%, 82.949829%, 90.724182%)" offset="0.871094"/><stop stop-opacity="1" stop-color="rgb(58.509827%, 82.849121%, 90.792847%)" offset="0.878906"/><stop stop-opacity="1" stop-color="rgb(58.326721%, 82.781982%, 90.838623%)" offset="0.882812"/><stop stop-opacity="1" stop-color="rgb(58.14209%, 82.713318%, 90.885925%)" offset="0.886719"/><stop stop-opacity="1" stop-color="rgb(57.958984%, 82.646179%, 90.931702%)" offset="0.890625"/><stop stop-opacity="1" stop-color="rgb(57.774353%, 82.579041%, 90.977478%)" offset="0.894531"/><stop stop-opacity="1" stop-color="rgb(57.589722%, 82.511902%, 91.023254%)" offset="0.898438"/><stop stop-opacity="1" stop-color="rgb(57.406616%, 82.444763%, 91.069031%)" offset="0.902344"/><stop stop-opacity="1" stop-color="rgb(57.221985%, 82.377625%, 91.116333%)" offset="0.90625"/><stop stop-opacity="1" stop-color="rgb(56.945801%, 82.276917%, 91.184998%)" offset="0.910156"/><stop stop-opacity="1" stop-color="rgb(56.578064%, 82.142639%, 91.27655%)" offset="0.917969"/><stop stop-opacity="1" stop-color="rgb(56.210327%, 82.008362%, 91.369629%)" offset="0.925781"/><stop stop-opacity="1" stop-color="rgb(55.84259%, 81.874084%, 91.461182%)" offset="0.933594"/><stop stop-opacity="1" stop-color="rgb(55.566406%, 81.773376%, 91.531372%)" offset="0.941406"/><stop stop-opacity="1" stop-color="rgb(55.383301%, 81.706238%, 91.577148%)" offset="0.945312"/><stop stop-opacity="1" stop-color="rgb(55.198669%, 81.639099%, 91.622925%)" offset="0.949219"/><stop stop-opacity="1" stop-color="rgb(55.014038%, 81.57196%, 91.668701%)" offset="0.953125"/><stop stop-opacity="1" stop-color="rgb(54.737854%, 81.471252%, 91.737366%)" offset="0.957031"/><stop stop-opacity="1" stop-color="rgb(54.370117%, 81.336975%, 91.830444%)" offset="0.964844"/><stop stop-opacity="1" stop-color="rgb(54.095459%, 81.236267%, 91.899109%)" offset="0.972656"/><stop stop-opacity="1" stop-color="rgb(53.910828%, 81.169128%, 91.944885%)" offset="0.976562"/><stop stop-opacity="1" stop-color="rgb(53.634644%, 81.06842%, 92.015076%)" offset="0.980469"/><stop stop-opacity="1" stop-color="rgb(53.358459%, 80.967712%, 92.08374%)" offset="0.988281"/><stop stop-opacity="1" stop-color="rgb(53.082275%, 80.867004%, 92.152405%)" offset="0.992188"/><stop stop-opacity="1" stop-color="rgb(52.89917%, 80.799866%, 92.199707%)" offset="1"/></radialGradient></defs><g clip-path="url(#cbcab7dbb7)"><path fill="#ffffff" d="M 1.816406 0 L 125.203125 0 L 125.203125 29.03125 L 1.816406 29.03125 Z M 1.816406 0 " fill-opacity="1" fill-rule="nonzero"/><path fill="url(#4ac47ae42f)" d="M 1.816406 0 L 1.816406 29.03125 L 125.203125 29.03125 L 125.203125 0 Z M 1.816406 0 " fill-rule="nonzero"/></g><g fill="#61b0b2" fill-opacity="0.4"><g transform="translate(26.151819, 20.654778)"><g><path d="M 5.15625 -5.5625 L 4.328125 -5.5625 L 4.328125 -0.296875 L 5.34375 -0.296875 L 5.34375 0 L 0.234375 0 L 0.234375 -0.296875 L 1.265625 -0.296875 L 1.265625 -10.71875 L 0.234375 -10.71875 L 0.234375 -11.015625 L 4.984375 -11.015625 C 6.347656 -11.015625 7.316406 -10.941406 7.890625 -10.796875 C 8.460938 -10.660156 8.863281 -10.492188 9.09375 -10.296875 C 9.59375 -9.878906 9.84375 -9.222656 9.84375 -8.328125 C 9.84375 -7.441406 9.625 -6.804688 9.1875 -6.421875 C 8.75 -6.046875 8.078125 -5.820312 7.171875 -5.75 L 7.171875 -5.703125 C 8.023438 -5.578125 8.617188 -5.320312 8.953125 -4.9375 C 9.285156 -4.550781 9.453125 -3.898438 9.453125 -2.984375 L 9.453125 -2.15625 C 9.453125 -1.613281 9.476562 -1.242188 9.53125 -1.046875 C 9.59375 -0.859375 9.71875 -0.765625 9.90625 -0.765625 C 10.101562 -0.765625 10.253906 -0.851562 10.359375 -1.03125 C 10.472656 -1.207031 10.578125 -1.570312 10.671875 -2.125 L 10.9375 -2.09375 C 10.820312 -1.195312 10.617188 -0.597656 10.328125 -0.296875 C 10.035156 0.00390625 9.457031 0.15625 8.59375 0.15625 C 7.738281 0.15625 7.128906 -0.0390625 6.765625 -0.4375 C 6.410156 -0.84375 6.234375 -1.601562 6.234375 -2.71875 L 6.234375 -3.875 C 6.234375 -4.457031 6.15625 -4.882812 6 -5.15625 C 5.851562 -5.425781 5.570312 -5.5625 5.15625 -5.5625 Z M 4.328125 -10.71875 L 4.328125 -5.875 L 4.828125 -5.875 C 5.429688 -5.875 5.875 -6.054688 6.15625 -6.421875 C 6.445312 -6.785156 6.59375 -7.382812 6.59375 -8.21875 L 6.59375 -8.671875 C 6.59375 -9.492188 6.453125 -10.039062 6.171875 -10.3125 C 5.898438 -10.582031 5.457031 -10.71875 4.84375 -10.71875 Z M 4.328125 -10.71875 "/></g></g></g><g fill="#61b0b2" fill-opacity="0.4"><g transform="translate(37.406094, 20.654778)"><g><path d="M 0.328125 -11.015625 L 8.515625 -11.015625 L 8.671875 -7.90625 L 8.390625 -7.90625 C 7.941406 -8.957031 7.476562 -9.679688 7 -10.078125 C 6.519531 -10.472656 5.8125 -10.671875 4.875 -10.671875 L 4.328125 -10.671875 L 4.328125 -5.8125 L 4.859375 -5.8125 C 5.347656 -5.8125 5.757812 -5.992188 6.09375 -6.359375 C 6.4375 -6.734375 6.675781 -7.238281 6.8125 -7.875 L 7.046875 -7.875 L 7.046875 -3.203125 L 6.78125 -3.203125 C 6.59375 -3.992188 6.335938 -4.554688 6.015625 -4.890625 C 5.691406 -5.222656 5.253906 -5.390625 4.703125 -5.390625 L 4.328125 -5.390625 L 4.328125 -0.34375 L 4.921875 -0.34375 C 5.890625 -0.34375 6.710938 -0.628906 7.390625 -1.203125 C 8.066406 -1.785156 8.53125 -2.53125 8.78125 -3.4375 L 9.09375 -3.4375 L 8.96875 0 L 0.328125 0 L 0.328125 -0.34375 L 1.265625 -0.34375 L 1.265625 -10.671875 L 0.328125 -10.671875 Z M 0.328125 -11.015625 "/></g></g></g><g fill="#61b0b2" fill-opacity="0.4"><g transform="translate(47.214294, 20.654778)"><g><path d="M 0.328125 -11.015625 L 8.515625 -11.015625 L 8.671875 -7.734375 L 8.390625 -7.734375 C 7.992188 -8.867188 7.539062 -9.640625 7.03125 -10.046875 C 6.53125 -10.460938 5.773438 -10.671875 4.765625 -10.671875 L 4.328125 -10.671875 L 4.328125 -5.546875 L 5.03125 -5.546875 C 5.539062 -5.546875 5.960938 -5.726562 6.296875 -6.09375 C 6.628906 -6.46875 6.859375 -6.972656 6.984375 -7.609375 L 7.21875 -7.609375 L 7.21875 -2.953125 L 6.953125 -2.953125 C 6.785156 -3.742188 6.550781 -4.304688 6.25 -4.640625 C 5.957031 -4.972656 5.550781 -5.140625 5.03125 -5.140625 L 4.328125 -5.140625 L 4.328125 -0.34375 L 6.28125 -0.34375 L 6.28125 0 L 0.328125 0 L 0.328125 -0.34375 L 1.265625 -0.34375 L 1.265625 -10.671875 L 0.328125 -10.671875 Z M 0.328125 -11.015625 "/></g></g></g><g fill="#61b0b2" fill-opacity="0.4"><g transform="translate(56.519503, 20.654778)"><g><path d="M 0.328125 -11.015625 L 6 -11.015625 L 6 -10.671875 L 4.328125 -10.671875 L 4.328125 -0.34375 L 4.890625 -0.34375 C 5.785156 -0.34375 6.492188 -0.613281 7.015625 -1.15625 C 7.546875 -1.707031 8.085938 -2.550781 8.640625 -3.6875 L 8.96875 -3.6875 L 8.671875 0 L 0.328125 0 L 0.328125 -0.34375 L 1.265625 -0.34375 L 1.265625 -10.671875 L 0.328125 -10.671875 Z M 0.328125 -11.015625 "/></g></g></g><g fill="#61b0b2" fill-opacity="0.4"><g transform="translate(65.887585, 20.654778)"><g><path d="M 0.328125 -11.015625 L 8.515625 -11.015625 L 8.671875 -7.90625 L 8.390625 -7.90625 C 7.941406 -8.957031 7.476562 -9.679688 7 -10.078125 C 6.519531 -10.472656 5.8125 -10.671875 4.875 -10.671875 L 4.328125 -10.671875 L 4.328125 -5.8125 L 4.859375 -5.8125 C 5.347656 -5.8125 5.757812 -5.992188 6.09375 -6.359375 C 6.4375 -6.734375 6.675781 -7.238281 6.8125 -7.875 L 7.046875 -7.875 L 7.046875 -3.203125 L 6.78125 -3.203125 C 6.59375 -3.992188 6.335938 -4.554688 6.015625 -4.890625 C 5.691406 -5.222656 5.253906 -5.390625 4.703125 -5.390625 L 4.328125 -5.390625 L 4.328125 -0.34375 L 4.921875 -0.34375 C 5.890625 -0.34375 6.710938 -0.628906 7.390625 -1.203125 C 8.066406 -1.785156 8.53125 -2.53125 8.78125 -3.4375 L 9.09375 -3.4375 L 8.96875 0 L 0.328125 0 L 0.328125 -0.34375 L 1.265625 -0.34375 L 1.265625 -10.671875 L 0.328125 -10.671875 Z M 0.328125 -11.015625 "/></g></g></g><g fill="#61b0b2" fill-opacity="0.4"><g transform="translate(75.695784, 20.654778)"><g><path d="M 0.390625 -11.015625 L 5.1875 -11.015625 L 5.1875 -10.71875 L 4.328125 -10.71875 L 4.328125 -5.75 L 4.453125 -5.78125 L 8.890625 -10.71875 L 7.640625 -10.71875 L 7.640625 -11.015625 L 10.40625 -11.015625 L 10.40625 -10.71875 L 9.453125 -10.71875 L 6.75 -7.6875 L 10.53125 -0.296875 L 11.375 -0.296875 L 11.375 0 L 6.328125 0 L 6.328125 -0.296875 L 7.0625 -0.296875 L 4.46875 -5.3125 L 4.328125 -5.28125 L 4.328125 -0.296875 L 5.1875 -0.296875 L 5.1875 0 L 0.390625 0 L 0.390625 -0.296875 L 1.265625 -0.296875 L 1.265625 -10.71875 L 0.390625 -10.71875 Z M 0.390625 -11.015625 "/></g></g></g><g fill="#61b0b2" fill-opacity="0.4"><g transform="translate(87.23299, 20.654778)"><g><path d="M 5.109375 -0.171875 C 5.640625 -0.171875 6.101562 -0.3125 6.5 -0.59375 C 6.90625 -0.875 7.109375 -1.300781 7.109375 -1.875 C 7.109375 -2.445312 6.890625 -2.882812 6.453125 -3.1875 C 6.023438 -3.5 5.410156 -3.765625 4.609375 -3.984375 C 3.804688 -4.210938 3.222656 -4.410156 2.859375 -4.578125 C 2.492188 -4.742188 2.148438 -4.960938 1.828125 -5.234375 C 1.171875 -5.785156 0.84375 -6.628906 0.84375 -7.765625 C 0.84375 -8.703125 1.175781 -9.503906 1.84375 -10.171875 C 2.507812 -10.847656 3.421875 -11.1875 4.578125 -11.1875 C 5.128906 -11.1875 5.707031 -11.101562 6.3125 -10.9375 C 6.914062 -10.78125 7.289062 -10.703125 7.4375 -10.703125 C 7.582031 -10.703125 7.710938 -10.804688 7.828125 -11.015625 L 8.015625 -11.015625 L 8.125 -7.828125 L 7.875 -7.828125 C 7.363281 -8.742188 6.832031 -9.476562 6.28125 -10.03125 C 5.726562 -10.582031 5.128906 -10.859375 4.484375 -10.859375 C 3.847656 -10.859375 3.347656 -10.707031 2.984375 -10.40625 C 2.628906 -10.101562 2.453125 -9.703125 2.453125 -9.203125 C 2.453125 -8.710938 2.664062 -8.332031 3.09375 -8.0625 C 3.519531 -7.789062 4.039062 -7.570312 4.65625 -7.40625 C 5.269531 -7.238281 5.675781 -7.125 5.875 -7.0625 C 6.070312 -7 6.3125 -6.910156 6.59375 -6.796875 C 6.882812 -6.691406 7.117188 -6.578125 7.296875 -6.453125 C 7.484375 -6.335938 7.679688 -6.1875 7.890625 -6 C 8.097656 -5.820312 8.257812 -5.617188 8.375 -5.390625 C 8.65625 -4.890625 8.796875 -4.296875 8.796875 -3.609375 C 8.796875 -2.472656 8.441406 -1.5625 7.734375 -0.875 C 7.023438 -0.1875 6.09375 0.15625 4.9375 0.15625 C 4.34375 0.15625 3.660156 0.078125 2.890625 -0.078125 C 2.117188 -0.234375 1.691406 -0.3125 1.609375 -0.3125 C 1.460938 -0.3125 1.320312 -0.15625 1.1875 0.15625 L 0.953125 0.15625 L 0.796875 -3.59375 L 1.0625 -3.59375 C 1.53125 -2.675781 2.125 -1.875 2.84375 -1.1875 C 3.5625 -0.507812 4.316406 -0.171875 5.109375 -0.171875 Z M 5.109375 -0.171875 "/></g></g></g><g fill="#61b0b2" fill-opacity="0.4"><g transform="translate(96.663945, 20.654778)"><g><path d="M 0.390625 -11.015625 L 5.1875 -11.015625 L 5.1875 -10.71875 L 4.328125 -10.71875 L 4.328125 -0.296875 L 5.1875 -0.296875 L 5.1875 0 L 0.390625 0 L 0.390625 -0.296875 L 1.265625 -0.296875 L 1.265625 -10.71875 L 0.390625 -10.71875 Z M 0.390625 -11.015625 "/></g></g></g><g fill="#302c2c" fill-opacity="1"><g transform="translate(25.45672, 19.959679)"><g><path d="M 5.15625 -5.5625 L 4.328125 -5.5625 L 4.328125 -0.296875 L 5.34375 -0.296875 L 5.34375 0 L 0.234375 0 L 0.234375 -0.296875 L 1.265625 -0.296875 L 1.265625 -10.71875 L 0.234375 -10.71875 L 0.234375 -11.015625 L 4.984375 -11.015625 C 6.347656 -11.015625 7.316406 -10.941406 7.890625 -10.796875 C 8.460938 -10.660156 8.863281 -10.492188 9.09375 -10.296875 C 9.59375 -9.878906 9.84375 -9.222656 9.84375 -8.328125 C 9.84375 -7.441406 9.625 -6.804688 9.1875 -6.421875 C 8.75 -6.046875 8.078125 -5.820312 7.171875 -5.75 L 7.171875 -5.703125 C 8.023438 -5.578125 8.617188 -5.320312 8.953125 -4.9375 C 9.285156 -4.550781 9.453125 -3.898438 9.453125 -2.984375 L 9.453125 -2.15625 C 9.453125 -1.613281 9.476562 -1.242188 9.53125 -1.046875 C 9.59375 -0.859375 9.71875 -0.765625 9.90625 -0.765625 C 10.101562 -0.765625 10.253906 -0.851562 10.359375 -1.03125 C 10.472656 -1.207031 10.578125 -1.570312 10.671875 -2.125 L 10.9375 -2.09375 C 10.820312 -1.195312 10.617188 -0.597656 10.328125 -0.296875 C 10.035156 0.00390625 9.457031 0.15625 8.59375 0.15625 C 7.738281 0.15625 7.128906 -0.0390625 6.765625 -0.4375 C 6.410156 -0.84375 6.234375 -1.601562 6.234375 -2.71875 L 6.234375 -3.875 C 6.234375 -4.457031 6.15625 -4.882812 6 -5.15625 C 5.851562 -5.425781 5.570312 -5.5625 5.15625 -5.5625 Z M 4.328125 -10.71875 L 4.328125 -5.875 L 4.828125 -5.875 C 5.429688 -5.875 5.875 -6.054688 6.15625 -6.421875 C 6.445312 -6.785156 6.59375 -7.382812 6.59375 -8.21875 L 6.59375 -8.671875 C 6.59375 -9.492188 6.453125 -10.039062 6.171875 -10.3125 C 5.898438 -10.582031 5.457031 -10.71875 4.84375 -10.71875 Z M 4.328125 -10.71875 "/></g></g></g><g fill="#302c2c" fill-opacity="1"><g transform="translate(36.710995, 19.959679)"><g><path d="M 0.328125 -11.015625 L 8.515625 -11.015625 L 8.671875 -7.90625 L 8.390625 -7.90625 C 7.941406 -8.957031 7.476562 -9.679688 7 -10.078125 C 6.519531 -10.472656 5.8125 -10.671875 4.875 -10.671875 L 4.328125 -10.671875 L 4.328125 -5.8125 L 4.859375 -5.8125 C 5.347656 -5.8125 5.757812 -5.992188 6.09375 -6.359375 C 6.4375 -6.734375 6.675781 -7.238281 6.8125 -7.875 L 7.046875 -7.875 L 7.046875 -3.203125 L 6.78125 -3.203125 C 6.59375 -3.992188 6.335938 -4.554688 6.015625 -4.890625 C 5.691406 -5.222656 5.253906 -5.390625 4.703125 -5.390625 L 4.328125 -5.390625 L 4.328125 -0.34375 L 4.921875 -0.34375 C 5.890625 -0.34375 6.710938 -0.628906 7.390625 -1.203125 C 8.066406 -1.785156 8.53125 -2.53125 8.78125 -3.4375 L 9.09375 -3.4375 L 8.96875 0 L 0.328125 0 L 0.328125 -0.34375 L 1.265625 -0.34375 L 1.265625 -10.671875 L 0.328125 -10.671875 Z M 0.328125 -11.015625 "/></g></g></g><g fill="#302c2c" fill-opacity="1"><g transform="translate(46.519194, 19.959679)"><g><path d="M 0.328125 -11.015625 L 8.515625 -11.015625 L 8.671875 -7.734375 L 8.390625 -7.734375 C 7.992188 -8.867188 7.539062 -9.640625 7.03125 -10.046875 C 6.53125 -10.460938 5.773438 -10.671875 4.765625 -10.671875 L 4.328125 -10.671875 L 4.328125 -5.546875 L 5.03125 -5.546875 C 5.539062 -5.546875 5.960938 -5.726562 6.296875 -6.09375 C 6.628906 -6.46875 6.859375 -6.972656 6.984375 -7.609375 L 7.21875 -7.609375 L 7.21875 -2.953125 L 6.953125 -2.953125 C 6.785156 -3.742188 6.550781 -4.304688 6.25 -4.640625 C 5.957031 -4.972656 5.550781 -5.140625 5.03125 -5.140625 L 4.328125 -5.140625 L 4.328125 -0.34375 L 6.28125 -0.34375 L 6.28125 0 L 0.328125 0 L 0.328125 -0.34375 L 1.265625 -0.34375 L 1.265625 -10.671875 L 0.328125 -10.671875 Z M 0.328125 -11.015625 "/></g></g></g><g fill="#302c2c" fill-opacity="1"><g transform="translate(55.824404, 19.959679)"><g><path d="M 0.328125 -11.015625 L 6 -11.015625 L 6 -10.671875 L 4.328125 -10.671875 L 4.328125 -0.34375 L 4.890625 -0.34375 C 5.785156 -0.34375 6.492188 -0.613281 7.015625 -1.15625 C 7.546875 -1.707031 8.085938 -2.550781 8.640625 -3.6875 L 8.96875 -3.6875 L 8.671875 0 L 0.328125 0 L 0.328125 -0.34375 L 1.265625 -0.34375 L 1.265625 -10.671875 L 0.328125 -10.671875 Z M 0.328125 -11.015625 "/></g></g></g><g fill="#302c2c" fill-opacity="1"><g transform="translate(65.192485, 19.959679)"><g><path d="M 0.328125 -11.015625 L 8.515625 -11.015625 L 8.671875 -7.90625 L 8.390625 -7.90625 C 7.941406 -8.957031 7.476562 -9.679688 7 -10.078125 C 6.519531 -10.472656 5.8125 -10.671875 4.875 -10.671875 L 4.328125 -10.671875 L 4.328125 -5.8125 L 4.859375 -5.8125 C 5.347656 -5.8125 5.757812 -5.992188 6.09375 -6.359375 C 6.4375 -6.734375 6.675781 -7.238281 6.8125 -7.875 L 7.046875 -7.875 L 7.046875 -3.203125 L 6.78125 -3.203125 C 6.59375 -3.992188 6.335938 -4.554688 6.015625 -4.890625 C 5.691406 -5.222656 5.253906 -5.390625 4.703125 -5.390625 L 4.328125 -5.390625 L 4.328125 -0.34375 L 4.921875 -0.34375 C 5.890625 -0.34375 6.710938 -0.628906 7.390625 -1.203125 C 8.066406 -1.785156 8.53125 -2.53125 8.78125 -3.4375 L 9.09375 -3.4375 L 8.96875 0 L 0.328125 0 L 0.328125 -0.34375 L 1.265625 -0.34375 L 1.265625 -10.671875 L 0.328125 -10.671875 Z M 0.328125 -11.015625 "/></g></g></g><g fill="#302c2c" fill-opacity="1"><g transform="translate(75.000685, 19.959679)"><g><path d="M 0.390625 -11.015625 L 5.1875 -11.015625 L 5.1875 -10.71875 L 4.328125 -10.71875 L 4.328125 -5.75 L 4.453125 -5.78125 L 8.890625 -10.71875 L 7.640625 -10.71875 L 7.640625 -11.015625 L 10.40625 -11.015625 L 10.40625 -10.71875 L 9.453125 -10.71875 L 6.75 -7.6875 L 10.53125 -0.296875 L 11.375 -0.296875 L 11.375 0 L 6.328125 0 L 6.328125 -0.296875 L 7.0625 -0.296875 L 4.46875 -5.3125 L 4.328125 -5.28125 L 4.328125 -0.296875 L 5.1875 -0.296875 L 5.1875 0 L 0.390625 0 L 0.390625 -0.296875 L 1.265625 -0.296875 L 1.265625 -10.71875 L 0.390625 -10.71875 Z M 0.390625 -11.015625 "/></g></g></g><g fill="#302c2c" fill-opacity="1"><g transform="translate(86.537891, 19.959679)"><g><path d="M 5.109375 -0.171875 C 5.640625 -0.171875 6.101562 -0.3125 6.5 -0.59375 C 6.90625 -0.875 7.109375 -1.300781 7.109375 -1.875 C 7.109375 -2.445312 6.890625 -2.882812 6.453125 -3.1875 C 6.023438 -3.5 5.410156 -3.765625 4.609375 -3.984375 C 3.804688 -4.210938 3.222656 -4.410156 2.859375 -4.578125 C 2.492188 -4.742188 2.148438 -4.960938 1.828125 -5.234375 C 1.171875 -5.785156 0.84375 -6.628906 0.84375 -7.765625 C 0.84375 -8.703125 1.175781 -9.503906 1.84375 -10.171875 C 2.507812 -10.847656 3.421875 -11.1875 4.578125 -11.1875 C 5.128906 -11.1875 5.707031 -11.101562 6.3125 -10.9375 C 6.914062 -10.78125 7.289062 -10.703125 7.4375 -10.703125 C 7.582031 -10.703125 7.710938 -10.804688 7.828125 -11.015625 L 8.015625 -11.015625 L 8.125 -7.828125 L 7.875 -7.828125 C 7.363281 -8.742188 6.832031 -9.476562 6.28125 -10.03125 C 5.726562 -10.582031 5.128906 -10.859375 4.484375 -10.859375 C 3.847656 -10.859375 3.347656 -10.707031 2.984375 -10.40625 C 2.628906 -10.101562 2.453125 -9.703125 2.453125 -9.203125 C 2.453125 -8.710938 2.664062 -8.332031 3.09375 -8.0625 C 3.519531 -7.789062 4.039062 -7.570312 4.65625 -7.40625 C 5.269531 -7.238281 5.675781 -7.125 5.875 -7.0625 C 6.070312 -7 6.3125 -6.910156 6.59375 -6.796875 C 6.882812 -6.691406 7.117188 -6.578125 7.296875 -6.453125 C 7.484375 -6.335938 7.679688 -6.1875 7.890625 -6 C 8.097656 -5.820312 8.257812 -5.617188 8.375 -5.390625 C 8.65625 -4.890625 8.796875 -4.296875 8.796875 -3.609375 C 8.796875 -2.472656 8.441406 -1.5625 7.734375 -0.875 C 7.023438 -0.1875 6.09375 0.15625 4.9375 0.15625 C 4.34375 0.15625 3.660156 0.078125 2.890625 -0.078125 C 2.117188 -0.234375 1.691406 -0.3125 1.609375 -0.3125 C 1.460938 -0.3125 1.320312 -0.15625 1.1875 0.15625 L 0.953125 0.15625 L 0.796875 -3.59375 L 1.0625 -3.59375 C 1.53125 -2.675781 2.125 -1.875 2.84375 -1.1875 C 3.5625 -0.507812 4.316406 -0.171875 5.109375 -0.171875 Z M 5.109375 -0.171875 "/></g></g></g><g fill="#302c2c" fill-opacity="1"><g transform="translate(95.968845, 19.959679)"><g><path d="M 0.390625 -11.015625 L 5.1875 -11.015625 L 5.1875 -10.71875 L 4.328125 -10.71875 L 4.328125 -0.296875 L 5.1875 -0.296875 L 5.1875 0 L 0.390625 0 L 0.390625 -0.296875 L 1.265625 -0.296875 L 1.265625 -10.71875 L 0.390625 -10.71875 Z M 0.390625 -11.015625 "/></g></g></g></svg>